<svg xmlns="http://www.w3.org/2000/svg" viewBox="0 0 1323.5 1094.34"><defs><style>.cls-1{fill:#6e74c8;stroke:#6e74c8;}.cls-1,.cls-2{stroke-miterlimit:10;}.cls-2{fill:#4e4ea1;stroke:#4e4ea1;}.cls-3{fill:#eb708e;}</style></defs><title>bg2_2</title><g id="Layer_2" data-name="Layer 2"><g id="Layer_1-2" data-name="Layer 1"><path class="cls-1" d="M1212.79.5H.5V782.77c1.58,9.94,32.74,42.16,40.5,50.49,68,73,156.48,137.56,242.25,187.85,29.66,17.4,64.83,27.58,97.55,37.61,72.64,22.26,148.51,35.12,224.57,35.12,396.34,0,717.63-321.29,717.63-717.62C1323,235.68,1282.6,111.19,1212.79.5Z"/><path class="cls-2" d="M.5,348.32v194C17.38,559.72,49.33,577,55.09,580l.81.36c20.56,9.14,45.9,19.41,74.35,28.88,45.42,15.12,92.46,26.88,140.27,30.87,23.47,2,47.21,2,70.59-1.16,47-6.35,97.6-24.44,138.38-48.66,39.52-23.47,74-55.58,101.82-92q7.25-9.48,13.89-19.4c41.74-62.48,63.58-137,63.58-212.09a389.57,389.57,0,0,0-8-79c-15-72.57-50.25-137.12-99.18-186.72a.42.42,0,0,0-.32-.13H.5V348.32"/><path class="cls-3" d="M323.5,1V167.34c0,73.14-39.29,143.34-102.53,183.21-61.68,38.88-153.68,37.72-221-2.21v13.82c34.84,19.12,75.35,28.76,115.08,28.76,40.53,0,80.25-10,112.29-30.22,66.7-42.05,108.13-116.14,108.13-193.36V1Z"/></g></g></svg>