<svg xmlns="http://www.w3.org/2000/svg" xmlns:xlink="http://www.w3.org/1999/xlink" viewBox="0 0 401.83 384.35"><defs><style>.cls-1{fill:#6e74c8;stroke:#6e74c8;stroke-width:0.35px;}.cls-1,.cls-3,.cls-4,.cls-5,.cls-6{stroke-miterlimit:10;}.cls-2{fill:#eb708e;}.cls-3,.cls-5{fill:#68b8fe;stroke:#68b8fe;}.cls-3{stroke-width:1.01px;}.cls-4{fill:none;stroke:#070707;stroke-width:1.16px;}.cls-5{stroke-width:0.96px;}.cls-6{fill:#fff;stroke:#fff;}.cls-7{fill:url(#linear-gradient);}.cls-8{fill:url(#linear-gradient-2);}</style><linearGradient id="linear-gradient" x1="20.13" y1="399.39" x2="59.13" y2="328.39" gradientUnits="userSpaceOnUse"><stop offset="0" stop-color="#eb708e"/><stop offset="0.11" stop-color="#e67390"/><stop offset="0.24" stop-color="#d77c98"/><stop offset="0.38" stop-color="#be8ba4"/><stop offset="0.53" stop-color="#9ca0b4"/><stop offset="0.68" stop-color="#70bbc9"/><stop offset="0.79" stop-color="#4ed0da"/><stop offset="0.91" stop-color="#21ebef"/><stop offset="1" stop-color="aqua"/></linearGradient><linearGradient id="linear-gradient-2" x1="500.22" y1="269.94" x2="350.91" y2="342.81" gradientTransform="translate(39.38 701.96) rotate(-90)" gradientUnits="userSpaceOnUse"><stop offset="0" stop-color="#eb708e"/><stop offset="0.11" stop-color="#e67390"/><stop offset="0.24" stop-color="#d77c98"/><stop offset="0.38" stop-color="#be8ba3"/><stop offset="0.53" stop-color="#9ca0b4"/><stop offset="0.69" stop-color="#70bbc9"/><stop offset="0.85" stop-color="#3adbe3"/><stop offset="1" stop-color="aqua"/></linearGradient></defs><title>mh-bg_7</title><g id="Layer_2" data-name="Layer 2"><g id="Layer_1-2" data-name="Layer 1"><rect class="cls-1" x="0.17" y="0.17" width="401" height="384"/><path class="cls-2" d="M98.52.59V51.16c0,22.24-11.94,43.58-31.17,55.7C48.6,118.68,20.63,118.33.17,106.19v4.2a73.3,73.3,0,0,0,35,8.74c12.32,0,24.4-3,34.14-9.18,20.28-12.79,32.87-35.31,32.87-58.79V.59Z"/><path class="cls-3" d="M341.4.59V31.4a40.56,40.56,0,0,0,19,33.94c11.43,7.21,28.47,7,40.94-.41v2.56A44.64,44.64,0,0,1,380,72.82a39.19,39.19,0,0,1-20.8-5.6,42.82,42.82,0,0,1-20-35.82V.59Z"/><ellipse class="cls-2" cx="296.43" cy="181.74" rx="54.62" ry="54.57"/><line class="cls-4" x1="127.04" y1="157.07" x2="127.04" y2="281.88"/><line class="cls-4" x1="131.82" y1="157.36" x2="131.82" y2="282.17"/><line class="cls-4" x1="136.6" y1="157.36" x2="136.6" y2="282.17"/><line class="cls-4" x1="141.38" y1="157.36" x2="141.38" y2="282.17"/><line class="cls-4" x1="146.16" y1="157.36" x2="146.16" y2="282.17"/><line class="cls-4" x1="150.94" y1="157.36" x2="150.94" y2="282.17"/><line class="cls-4" x1="155.72" y1="157.07" x2="155.72" y2="281.88"/><line class="cls-4" x1="160.49" y1="157.36" x2="160.49" y2="282.17"/><line class="cls-4" x1="165.27" y1="157.36" x2="165.27" y2="282.17"/><line class="cls-4" x1="170.05" y1="157.36" x2="170.05" y2="282.17"/><line class="cls-4" x1="174.83" y1="157.36" x2="174.83" y2="282.17"/><line class="cls-4" x1="179.61" y1="157.36" x2="179.61" y2="282.17"/><line class="cls-4" x1="184.39" y1="157.07" x2="184.39" y2="281.88"/><line class="cls-4" x1="189.17" y1="157.36" x2="189.17" y2="282.17"/><line class="cls-4" x1="193.95" y1="157.36" x2="193.95" y2="282.17"/><line class="cls-4" x1="198.73" y1="157.36" x2="198.73" y2="282.17"/><line class="cls-4" x1="203.51" y1="157.36" x2="203.51" y2="282.17"/><line class="cls-4" x1="208.29" y1="157.36" x2="208.29" y2="282.17"/><line class="cls-4" x1="213.06" y1="157.07" x2="213.06" y2="281.88"/><line class="cls-4" x1="217.84" y1="157.36" x2="217.84" y2="282.17"/><line class="cls-4" x1="222.62" y1="157.36" x2="222.62" y2="282.17"/><line class="cls-4" x1="227.4" y1="157.36" x2="227.4" y2="282.17"/><line class="cls-4" x1="232.18" y1="157.36" x2="232.18" y2="282.17"/><line class="cls-4" x1="236.96" y1="157.36" x2="236.96" y2="282.17"/><line class="cls-4" x1="241.74" y1="157.07" x2="241.74" y2="281.88"/><line class="cls-4" x1="246.52" y1="157.36" x2="246.52" y2="282.17"/><line class="cls-4" x1="251.3" y1="157.36" x2="251.3" y2="282.17"/><line class="cls-4" x1="256.08" y1="157.36" x2="256.08" y2="282.17"/><line class="cls-4" x1="260.86" y1="157.36" x2="260.86" y2="282.17"/><line class="cls-4" x1="265.63" y1="157.36" x2="265.63" y2="282.17"/><ellipse class="cls-5" cx="105.25" cy="214.25" rx="31.96" ry="31.93"/><path class="cls-6" d="M118.5,255.12q-2.41-1.41-2.41-4.83a20.31,20.31,0,0,1,1-5.41q1-3.31,3.08-9.23,3.42-9.66,5.23-16.24a48,48,0,0,0,1.8-12.66,52.46,52.46,0,0,0-.26-5.84,7.12,7.12,0,0,0-1.41-3.62,4.31,4.31,0,0,0-3.6-1.44,6.9,6.9,0,0,0-5.06,2.06,12.57,12.57,0,0,0-3,5.1,19.62,19.62,0,0,0-1,5.92,9.64,9.64,0,0,0,.79,4.21q-3.25,0-4.75-1.56a5.64,5.64,0,0,1-1.49-4.05,11.24,11.24,0,0,1,2.24-6.42,17.57,17.57,0,0,1,6-5.34,15.81,15.81,0,0,1,7.87-2.1c3.57,0,6.27,1.23,8.08,3.7s2.73,5.85,2.73,10.16a44.41,44.41,0,0,1-1.76,12q-1.76,6.27-5,15.14-2.28,6.17-3.43,10a23.33,23.33,0,0,0-1.14,6.47,3.78,3.78,0,0,0,.57,2.3,2.49,2.49,0,0,0,2.07.74q4.13,0,9.93-6.43a78,78,0,0,0,10.45-15q4.66-8.53,5.45-13.75a5.67,5.67,0,0,1,4,1.21,3.53,3.53,0,0,1,1.31,2.61,7.66,7.66,0,0,1-.7,2.72q-.71,1.71-2.55,5.61-3.17,6.54-4.83,11.06a25,25,0,0,0-1.67,8.64,5,5,0,0,0,.48,2.46,2.12,2.12,0,0,0,2,.82q4.83,0,12.3-8.18a84.51,84.51,0,0,0,13.05-19.32q5.58-11.13,5.58-19.23a10,10,0,0,0-1.27-5.57,6,6,0,0,0-3.56-2.53,10.06,10.06,0,0,1,2.55-2.69,4.52,4.52,0,0,1,2.54-.9,4.63,4.63,0,0,1,3.74,2.26,10.85,10.85,0,0,1,1.63,6.39q0,8.32-6.6,20.91a93,93,0,0,1-15.68,21.92q-9.09,9.36-16,9.35a9.36,9.36,0,0,1-5.22-1.52,4.84,4.84,0,0,1-2.33-4.32,24.44,24.44,0,0,1,1.75-7,52.2,52.2,0,0,1-9.4,9.38q-4.65,3.46-8.79,3.47A10.14,10.14,0,0,1,118.5,255.12Z"/><path class="cls-6" d="M182.87,250.37a6.69,6.69,0,0,1-1.85-4.91q0-4.2,3.21-9.73a33.2,33.2,0,0,1,8.17-9.47q5-3.93,9.89-3.93c1.93,0,3.19.54,3.78,1.63a1.72,1.72,0,0,1,.61-.07,2.57,2.57,0,0,1,2.24,1.05,3.46,3.46,0,0,1,.75,2,8.89,8.89,0,0,1-1.23,3.2,33.88,33.88,0,0,0-1.63,3.54,8.7,8.7,0,0,0-.57,3.08,4,4,0,0,0,1.23,3.23,6.05,6.05,0,0,0,4,1.05q2.19,0,4.92-2.49a33.84,33.84,0,0,0,8.52-13.48,2.38,2.38,0,0,1-.88-1.86,5.57,5.57,0,0,1,.66-2.65,5.91,5.91,0,0,1,1.58-1.95,2.76,2.76,0,0,1,1.45-.7c.82,0,1.23.62,1.23,1.87a5,5,0,0,1-.44,1.4,12.59,12.59,0,0,0-.52,1.48,1.93,1.93,0,0,0,.74,1.44,18.72,18.72,0,0,0,2.42,1.68,20.73,20.73,0,0,1,4.26,3.38,6.14,6.14,0,0,1,1.54,4.33,9.71,9.71,0,0,1-.62,3.38q-.61,1.68-1.84,4.41-1.94,3.74-1.93,5.37c0,1.56.87,2.34,2.63,2.34a11,11,0,0,0,5.67-1.87,26.48,26.48,0,0,0,5.58-4.64,22,22,0,0,0,3.69-5.1l1.14.78a28.63,28.63,0,0,1-7.91,9.5q-5.17,4.13-10.45,4.13a7.24,7.24,0,0,1-4.7-1.4,4.5,4.5,0,0,1-1.72-3.66c0-1.77.85-4.31,2.55-7.64q1.14-2.56,1.71-4.08a8.18,8.18,0,0,0,.58-2.85,4.44,4.44,0,0,0-1-3.07A9.66,9.66,0,0,0,228,227.2c-.82-.5-1.37-.82-1.67-1a40.15,40.15,0,0,1-6.63,11.49q-4.26,5.17-8.83,5.18a10.51,10.51,0,0,1-4.48-.9,6.55,6.55,0,0,1-3-2.68,29.56,29.56,0,0,1-6.9,9.42,12.67,12.67,0,0,1-8.48,3.51A7,7,0,0,1,182.87,250.37Zm13.71-5a28.33,28.33,0,0,0,6-8.53,16.5,16.5,0,0,1-.52-4.44c0-3.21.55-5.58,1.66-7.08a12.52,12.52,0,0,0-8.47,3.46A26.46,26.46,0,0,0,189,237a18.64,18.64,0,0,0-2.33,7.91,4.44,4.44,0,0,0,.88,2.88,3,3,0,0,0,2.46,1.09C192,248.89,194.17,247.73,196.58,245.42Z"/><path class="cls-6" d="M269.25,250.37a14.49,14.49,0,0,1-2.95-5.61,22.69,22.69,0,0,1-.92-6.08,16.87,16.87,0,0,0,9.14-3.38,5.08,5.08,0,0,0,2.11-4.09,3,3,0,0,0-1.32-2.53,5.05,5.05,0,0,0-3.08-1q-5.62,0-9.62,6.39a78.73,78.73,0,0,0-7,14.41l-1,2.26a2.76,2.76,0,0,1-1.27,1.05,4.48,4.48,0,0,1-1.72.35,2.38,2.38,0,0,1-2.55-1.87,21.47,21.47,0,0,1-.52-5.45q0-7.64,5.22-19.71A125.45,125.45,0,0,1,265.6,203.6q6.54-9.47,9.62-9.47a2.28,2.28,0,0,1,1.93,1.48,7.52,7.52,0,0,1,.79,3.59,18.54,18.54,0,0,1-2.32,8.18,37.13,37.13,0,0,1-6.46,8.87,36.24,36.24,0,0,1-9.14,6.94,67.56,67.56,0,0,0-4.31,12.07,43.68,43.68,0,0,0-1.49,10.2,77.57,77.57,0,0,1,8.87-15.23q5-6.57,10.81-6.58a8.08,8.08,0,0,1,5.54,2,6.32,6.32,0,0,1,2.28,4.9,6.65,6.65,0,0,1-2.24,5.11,14.14,14.14,0,0,1-5.18,3,16.59,16.59,0,0,1-5.05,1,23.46,23.46,0,0,0,2.15,6.46q1.71,3.59,4.7,3.58,6.58,0,13-12.69l.88.78a24.86,24.86,0,0,1-3.78,7.24,22.76,22.76,0,0,1-5.71,5.53,11.14,11.14,0,0,1-6.15,2.1A6.42,6.42,0,0,1,269.25,250.37Zm-.8-36.69a36.69,36.69,0,0,0,4.79-7.08,13.18,13.18,0,0,0,1.72-5.46c0-.46-.09-.7-.27-.7-.88,0-2.66,2-5.36,6a113.4,113.4,0,0,0-7.82,13.67A36.55,36.55,0,0,0,268.45,213.68Z"/><path class="cls-7" d="M.32,343.3a50,50,0,0,1,78.8,40.87H.17"/><path class="cls-8" d="M324.33,383.9a94,94,0,0,1,76.84-148.15V384.17"/></g></g></svg>