<svg xmlns="http://www.w3.org/2000/svg" viewBox="0 0 401.83 384.35"><defs><style>.cls-1{fill:#6e74c8;stroke:#6e74c8;stroke-width:0.35px;}.cls-1,.cls-4{stroke-miterlimit:10;}.cls-2{fill:#fff;}.cls-3{fill:#eb708e;}.cls-4{fill:#68b8fe;stroke:#68b8fe;stroke-width:1.01px;}</style></defs><title>mh-bg_4</title><g id="Layer_2" data-name="Layer 2"><g id="Layer_1-2" data-name="Layer 1"><rect class="cls-1" x="0.17" y="0.17" width="401" height="384"/><path class="cls-2" d="M114.89,290.76c-1.8-1-2.69-2.83-2.69-5.37a22.29,22.29,0,0,1,1.07-6q1.08-3.69,3.42-10.28,3.82-10.75,5.82-18.09a53.31,53.31,0,0,0,2-14.1,55.5,55.5,0,0,0-.3-6.5,7.9,7.9,0,0,0-1.56-4,4.81,4.81,0,0,0-4-1.6,7.6,7.6,0,0,0-5.62,2.3,13.81,13.81,0,0,0-3.38,5.68,21.86,21.86,0,0,0-1.07,6.59,10.78,10.78,0,0,0,.88,4.69q-3.61,0-5.28-1.74a6.24,6.24,0,0,1-1.66-4.51A12.55,12.55,0,0,1,105,230.6a19.65,19.65,0,0,1,6.65-5.94,17.55,17.55,0,0,1,8.75-2.34q6,0,9,4.12c2,2.75,3,6.52,3,11.32a49.61,49.61,0,0,1-2,13.32q-1.95,7-5.57,16.87-2.55,6.85-3.82,11.1a26.27,26.27,0,0,0-1.27,7.2,4.14,4.14,0,0,0,.64,2.56,2.74,2.74,0,0,0,2.3.83q4.59,0,11-7.16a86.49,86.49,0,0,0,11.64-16.66q5.17-9.49,6.06-15.31a6.3,6.3,0,0,1,4.4,1.35,3.9,3.9,0,0,1,1.47,2.9,8.64,8.64,0,0,1-.78,3c-.53,1.27-1.47,3.35-2.84,6.24q-3.52,7.29-5.38,12.32a27.78,27.78,0,0,0-1.85,9.63,5.44,5.44,0,0,0,.53,2.73,2.34,2.34,0,0,0,2.2.92q5.38,0,13.69-9.11A94.54,94.54,0,0,0,177.46,259q6.21-12.4,6.21-21.42a11.19,11.19,0,0,0-1.42-6.21,6.75,6.75,0,0,0-4-2.82,11.25,11.25,0,0,1,2.84-3,4.62,4.62,0,0,1,7,1.52,12.09,12.09,0,0,1,1.81,7.11q0,9.28-7.34,23.3a103.65,103.65,0,0,1-17.45,24.42q-10.12,10.4-17.84,10.4a10.41,10.41,0,0,1-5.82-1.69,5.4,5.4,0,0,1-2.59-4.81c0-1.56.65-4.17,2-7.81a58.16,58.16,0,0,1-10.46,10.45q-5.17,3.87-9.77,3.86A11.19,11.19,0,0,1,114.89,290.76Z"/><path class="cls-2" d="M186.51,285.47a7.45,7.45,0,0,1-2.06-5.46q0-4.69,3.57-10.85a37.12,37.12,0,0,1,9.09-10.54q5.53-4.38,11-4.38c2.15,0,3.56.61,4.21,1.82A2.1,2.1,0,0,1,213,256a2.87,2.87,0,0,1,2.5,1.17,3.91,3.91,0,0,1,.83,2.21,10,10,0,0,1-1.37,3.56,37,37,0,0,0-1.81,3.94,9.56,9.56,0,0,0-.64,3.43,4.49,4.49,0,0,0,1.37,3.6,6.72,6.72,0,0,0,4.4,1.17q2.44,0,5.48-2.77a33.55,33.55,0,0,0,5.67-7,34,34,0,0,0,3.81-8,2.7,2.7,0,0,1-1-2.08,6.21,6.21,0,0,1,.74-2.95,6.35,6.35,0,0,1,1.76-2.17,3.06,3.06,0,0,1,1.61-.78c.91,0,1.37.69,1.37,2.08a5.79,5.79,0,0,1-.49,1.56,13.8,13.8,0,0,0-.59,1.65,2.13,2.13,0,0,0,.83,1.6,19.1,19.1,0,0,0,2.69,1.87,23.62,23.62,0,0,1,4.75,3.77,6.86,6.86,0,0,1,1.71,4.82,10.78,10.78,0,0,1-.69,3.77c-.45,1.25-1.14,2.88-2,4.9-1.44,2.78-2.15,4.77-2.15,6,0,1.73,1,2.6,2.93,2.6a12.13,12.13,0,0,0,6.31-2.08,29.84,29.84,0,0,0,6.21-5.16,24.88,24.88,0,0,0,4.1-5.69l1.27.87a32,32,0,0,1-8.8,10.59Q248,287,242.14,287a8,8,0,0,1-5.23-1.56,5,5,0,0,1-1.91-4.08c0-2,.95-4.8,2.84-8.5.84-1.91,1.48-3.42,1.9-4.55a8.9,8.9,0,0,0,.64-3.17,4.93,4.93,0,0,0-1.13-3.42,10.9,10.9,0,0,0-2.49-2.09q-1.37-.82-1.86-1.08a45,45,0,0,1-7.38,12.8q-4.74,5.76-9.82,5.76a11.79,11.79,0,0,1-5-1,7.41,7.41,0,0,1-3.33-3,33.07,33.07,0,0,1-7.67,10.5,14.13,14.13,0,0,1-9.44,3.9A7.7,7.7,0,0,1,186.51,285.47ZM201.76,280a31.63,31.63,0,0,0,6.65-9.5,18.32,18.32,0,0,1-.59-4.94q0-5.38,1.86-7.89a13.94,13.94,0,0,0-9.44,3.86,29.61,29.61,0,0,0-6.94,9.1q-2.6,5.25-2.59,8.81a4.92,4.92,0,0,0,1,3.21,3.31,3.31,0,0,0,2.74,1.21C196.64,283.82,199.08,282.54,201.76,280Z"/><path class="cls-2" d="M282.62,285.47a16.14,16.14,0,0,1-3.28-6.24,25.28,25.28,0,0,1-1-6.77,16.92,16.92,0,0,0,4.84-.95,16.71,16.71,0,0,0,5.33-2.82,5.64,5.64,0,0,0,2.35-4.56,3.36,3.36,0,0,0-1.47-2.82,5.6,5.6,0,0,0-3.42-1.08q-6.26,0-10.71,7.11a88.63,88.63,0,0,0-7.77,16.05l-1.07,2.52a3,3,0,0,1-1.42,1.17,4.91,4.91,0,0,1-1.91.39,2.66,2.66,0,0,1-2.83-2.08,23.44,23.44,0,0,1-.59-6.08q0-8.51,5.82-21.95a138.91,138.91,0,0,1,13.1-24q7.28-10.55,10.7-10.54,1.28,0,2.16,1.65a8.46,8.46,0,0,1,.88,4,20.65,20.65,0,0,1-2.6,9.11,40.76,40.76,0,0,1-7.18,9.88,40.11,40.11,0,0,1-10.17,7.73,75.29,75.29,0,0,0-4.79,13.44A48.29,48.29,0,0,0,265.9,280a85.23,85.23,0,0,1,9.87-17q5.58-7.33,12-7.33A9,9,0,0,1,294,258a7.08,7.08,0,0,1,2.54,5.47,7.42,7.42,0,0,1-2.49,5.68,15.76,15.76,0,0,1-5.77,3.38,18.24,18.24,0,0,1-5.62,1.09,26,26,0,0,0,2.39,7.2c1.27,2.66,3,4,5.23,4q7.33,0,14.47-14.14l1,.87a27.63,27.63,0,0,1-4.2,8.06,25.51,25.51,0,0,1-6.36,6.16,12.39,12.39,0,0,1-6.84,2.34A7.13,7.13,0,0,1,282.62,285.47Zm-.88-40.86a41.53,41.53,0,0,0,5.33-7.89,14.79,14.79,0,0,0,1.9-6.07c0-.52-.1-.78-.29-.78q-1.47,0-6,6.63a126.54,126.54,0,0,0-8.7,15.23A41.05,41.05,0,0,0,281.74,244.61Z"/><path class="cls-3" d="M98.52.59V51.16c0,22.24-11.94,43.58-31.17,55.7C48.6,118.68,20.63,118.33.17,106.19v4.2a73.3,73.3,0,0,0,35,8.74c12.32,0,24.4-3,34.14-9.18,20.28-12.79,32.87-35.31,32.87-58.79V.59Z"/><path class="cls-4" d="M341.4.59V31.4a40.56,40.56,0,0,0,19,33.94c11.43,7.21,28.47,7,40.94-.41v2.56A44.64,44.64,0,0,1,380,72.82a39.19,39.19,0,0,1-20.8-5.6,42.82,42.82,0,0,1-20-35.82V.59Z"/></g></g></svg>