<svg xmlns="http://www.w3.org/2000/svg" viewBox="0 0 518.71 433.3"><defs><style>.cls-1{fill:#6e74c8;stroke:#6e74c8;stroke-width:0.42px;}.cls-1,.cls-5{stroke-miterlimit:10;}.cls-2{font-size:86.75px;fill:#fff;font-family:DancingScript-Regular, Dancing Script;}.cls-3{letter-spacing:-0.03em;}.cls-4{fill:#eb708e;}.cls-5{fill:#68b8fe;stroke:#68b8fe;stroke-width:1.01px;}</style></defs><title>mh-bg</title><g id="Layer_2" data-name="Layer 2"><g id="Layer_1-2" data-name="Layer 1"><rect class="cls-1" x="0.5" y="0.59" width="518" height="432.5"/><text class="cls-2" transform="translate(144.9 295.7) scale(1.13 1)"><tspan class="cls-3">W</tspan><tspan x="75.91" y="0">ork</tspan></text><path class="cls-4" d="M98.35.5V51.08c0,22.23-11.94,43.58-31.17,55.7C48.43,118.6,20.46,118.25,0,106.11v4.2a73.41,73.41,0,0,0,35,8.74c12.32,0,24.4-3,34.13-9.19C89.4,97.08,102,74.56,102,51.08V.5Z"/><path class="cls-5" d="M458.22.5V31.32a40.58,40.58,0,0,0,19,33.94c11.42,7.2,28.47,7,40.93-.41v2.56a44.73,44.73,0,0,1-21.32,5.33,39.22,39.22,0,0,1-20.8-5.6,42.83,42.83,0,0,1-20-35.82V.5Z"/></g></g></svg>