<svg xmlns="http://www.w3.org/2000/svg" xmlns:xlink="http://www.w3.org/1999/xlink" viewBox="0 0 401.83 384.35"><defs><style>.cls-1{fill:#6e74c8;stroke:#6e74c8;stroke-width:0.35px;}.cls-1,.cls-3,.cls-4,.cls-5{stroke-miterlimit:10;}.cls-2{fill:#eb708e;}.cls-3,.cls-5{fill:#68b8fe;stroke:#68b8fe;}.cls-3{stroke-width:1.01px;}.cls-4{fill:none;stroke:#070707;stroke-width:1.16px;}.cls-5{stroke-width:0.96px;}.cls-6{font-size:77.88px;fill:#fff;font-family:DancingScript-Regular, Dancing Script;letter-spacing:-0.03em;}.cls-7{letter-spacing:0em;}.cls-8{fill:url(#linear-gradient);}.cls-9{fill:url(#linear-gradient-2);}</style><linearGradient id="linear-gradient" x1="62.41" y1="333.88" x2="24.41" y2="383.88" gradientUnits="userSpaceOnUse"><stop offset="0" stop-color="#eb708e"/><stop offset="0.11" stop-color="#e67390"/><stop offset="0.24" stop-color="#d77c98"/><stop offset="0.38" stop-color="#be8ba3"/><stop offset="0.53" stop-color="#9ca0b4"/><stop offset="0.69" stop-color="#70bbc9"/><stop offset="0.85" stop-color="#3adbe3"/><stop offset="1" stop-color="aqua"/></linearGradient><linearGradient id="linear-gradient-2" x1="500.22" y1="269.94" x2="350.91" y2="342.81" gradientTransform="translate(39.38 701.96) rotate(-90)" xlink:href="#linear-gradient"/></defs><title>mh-bg_6</title><g id="Layer_2" data-name="Layer 2"><g id="Layer_1-2" data-name="Layer 1"><rect class="cls-1" x="0.17" y="0.17" width="401" height="384"/><path class="cls-2" d="M98.52.59V51.16c0,22.24-11.94,43.58-31.17,55.7C48.6,118.68,20.63,118.33.17,106.19v4.2a73.3,73.3,0,0,0,35,8.74c12.32,0,24.4-3,34.14-9.18,20.28-12.79,32.87-35.31,32.87-58.79V.59Z"/><path class="cls-3" d="M341.4.59V31.4a40.56,40.56,0,0,0,19,33.94c11.43,7.21,28.47,7,40.94-.41v2.56A44.64,44.64,0,0,1,380,72.82a39.19,39.19,0,0,1-20.8-5.6,42.82,42.82,0,0,1-20-35.82V.59Z"/><ellipse class="cls-2" cx="296.43" cy="181.74" rx="54.62" ry="54.57"/><line class="cls-4" x1="127.04" y1="157.07" x2="127.04" y2="281.88"/><line class="cls-4" x1="131.82" y1="157.36" x2="131.82" y2="282.17"/><line class="cls-4" x1="136.6" y1="157.36" x2="136.6" y2="282.17"/><line class="cls-4" x1="141.38" y1="157.36" x2="141.38" y2="282.17"/><line class="cls-4" x1="146.16" y1="157.36" x2="146.16" y2="282.17"/><line class="cls-4" x1="150.94" y1="157.36" x2="150.94" y2="282.17"/><line class="cls-4" x1="155.72" y1="157.07" x2="155.72" y2="281.88"/><line class="cls-4" x1="160.49" y1="157.36" x2="160.49" y2="282.17"/><line class="cls-4" x1="165.27" y1="157.36" x2="165.27" y2="282.17"/><line class="cls-4" x1="170.05" y1="157.36" x2="170.05" y2="282.17"/><line class="cls-4" x1="174.83" y1="157.36" x2="174.83" y2="282.17"/><line class="cls-4" x1="179.61" y1="157.36" x2="179.61" y2="282.17"/><line class="cls-4" x1="184.39" y1="157.07" x2="184.39" y2="281.88"/><line class="cls-4" x1="189.17" y1="157.36" x2="189.17" y2="282.17"/><line class="cls-4" x1="193.95" y1="157.36" x2="193.95" y2="282.17"/><line class="cls-4" x1="198.73" y1="157.36" x2="198.73" y2="282.17"/><line class="cls-4" x1="203.51" y1="157.36" x2="203.51" y2="282.17"/><line class="cls-4" x1="208.29" y1="157.36" x2="208.29" y2="282.17"/><line class="cls-4" x1="213.06" y1="157.07" x2="213.06" y2="281.88"/><line class="cls-4" x1="217.84" y1="157.36" x2="217.84" y2="282.17"/><line class="cls-4" x1="222.62" y1="157.36" x2="222.62" y2="282.17"/><line class="cls-4" x1="227.4" y1="157.36" x2="227.4" y2="282.17"/><line class="cls-4" x1="232.18" y1="157.36" x2="232.18" y2="282.17"/><line class="cls-4" x1="236.96" y1="157.36" x2="236.96" y2="282.17"/><line class="cls-4" x1="241.74" y1="157.07" x2="241.74" y2="281.88"/><line class="cls-4" x1="246.52" y1="157.36" x2="246.52" y2="282.17"/><line class="cls-4" x1="251.3" y1="157.36" x2="251.3" y2="282.17"/><line class="cls-4" x1="256.08" y1="157.36" x2="256.08" y2="282.17"/><line class="cls-4" x1="260.86" y1="157.36" x2="260.86" y2="282.17"/><line class="cls-4" x1="265.63" y1="157.36" x2="265.63" y2="282.17"/><ellipse class="cls-5" cx="105.25" cy="214.25" rx="31.96" ry="31.93"/><text class="cls-6" transform="translate(105.19 249.74) scale(1.13 1)">W<tspan class="cls-7" x="68.15" y="0">ork</tspan></text><path class="cls-8" d="M.32,343.3a50,50,0,0,1,78.8,40.87H.17"/><path class="cls-9" d="M324.33,383.9a94,94,0,0,1,76.84-148.15V384.17"/></g></g></svg>