<svg xmlns="http://www.w3.org/2000/svg" viewBox="0 0 173.55 214.65"><defs><style>.cls-1{fill:#f7f7f7;}</style></defs><title>mobo</title><g id="Layer_2" data-name="Layer 2"><g id="Layer_1-2" data-name="Layer 1"><path class="cls-1" d="M94.61,144.6c-1-.35-1.32-.59-1.6-.54-13.5,2.21-24.59-3.29-35.74-10.11-14.08-8.6-28.53-16.54-39.87-28.88C-13.84,71.09-1.35,18.51,41.55,3.38c37.36-13.17,78.25,13.77,81,53.4.11,1.44,0,2.89,0,4.87-10.88,0-21.34.12-31.79-.18-1,0-2.62-2.46-2.89-4C85.72,44.88,75.4,35.36,63,34.8c-13.23-.59-24.46,7.41-27.59,19.92-2.21,8.85.08,16.81,5.5,24,7.53,9.91,17.82,16.41,28.31,22.6,12.19,7.18,24.71,13.84,36.62,21.45a79.4,79.4,0,0,1,17.37,14.78,29.11,29.11,0,0,1,6.32,14.72c1.3,10.42-6.53,18.44-16.8,18.71s-18-7.37-18.09-17.78C94.58,150.35,94.61,147.53,94.61,144.6Z"/><path class="cls-1" d="M50.89,153.27H84.75c.28,1.12.63,2.19.81,3.3,1.76,11.06,7.89,18.7,18.47,22.13,10.2,3.31,19.61,1,27.13-6.68,8-8.14,9.63-18,6-28.69-2.9-8.52-8.64-15.19-15.82-20.14C110.4,115.65,98.86,109,87.59,101.9,76.62,95,65.37,88.46,54.82,81,48.2,76.25,43.55,69.56,43.73,60.7A17.2,17.2,0,0,1,61.18,43.79,17.42,17.42,0,0,1,78.87,60.51c.1,3.15,0,6.3,0,10.27,6.37,0,12.47-.19,18.54.1A16.32,16.32,0,0,1,104.85,73c13.5,8.19,27.54,15.73,40.1,25.21,18.32,13.82,28.87,32.51,28.6,56.17-.37,32.26-27.06,59.45-59,60.3-33.49.88-61.45-24.13-63.66-57C50.81,156.36,50.89,155.05,50.89,153.27Z"/><path class="cls-1" d="M40.94,153.47c1.25,25.63,13.37,45,33.85,59.81-32,7.5-69-22.78-67.8-59.81Z"/><path class="cls-1" d="M98.17,1.08c37.17-6,69.6,26.39,68.33,60.21H132.64C131.36,35.92,119.33,16.31,98.17,1.08Z"/></g></g></svg>