<svg xmlns="http://www.w3.org/2000/svg" viewBox="0 0 367 233"><defs><style>.cls-1{fill:#050505;}</style></defs><title>msg</title><g id="Layer_2" data-name="Layer 2"><g id="Layer_1-2" data-name="Layer 1"><path class="cls-1" d="M328.5,233H38.5A38.54,38.54,0,0,1,0,194.5V38.5A38.54,38.54,0,0,1,38.5,0h290A38.54,38.54,0,0,1,367,38.5v156A38.54,38.54,0,0,1,328.5,233ZM38.5,5A33.54,33.54,0,0,0,5,38.5v156A33.54,33.54,0,0,0,38.5,228h290A33.54,33.54,0,0,0,362,194.5V38.5A33.54,33.54,0,0,0,328.5,5Z"/><polygon class="cls-1" points="179.98 137.06 11.71 16.53 14.62 12.47 180.02 130.94 350.4 11.79 353.27 15.88 179.98 137.06"/><rect class="cls-1" x="-10.04" y="159.25" width="175.25" height="5" transform="translate(-84.05 83.93) rotate(-38.67)"/><rect class="cls-1" x="286.25" y="74.39" width="5" height="173.38" transform="translate(-17.28 286.25) rotate(-51.4)"/></g></g></svg>