<svg xmlns="http://www.w3.org/2000/svg" viewBox="0 0 434.97 119.76"><defs><style>.cls-1{fill:#f9f9f9;}.cls-2{fill:#fff;}</style></defs><title>name</title><g id="Layer_2" data-name="Layer 2"><g id="Layer_1-2" data-name="Layer 1"><path class="cls-1" d="M4.46,67.53q4-1.66,11.36-1.66a86.13,86.13,0,0,0,5-14.44q2.3-8.74,5.71-23.92.36-1.56,2.07-9.2A109.28,109.28,0,0,1,31.65,6.72q-6.63.09-11.46.64T9.84,8.92A8.88,8.88,0,0,1,15.59,2.3q4.83-2,14.68-2A212.67,212.67,0,0,1,57,2.3a14.26,14.26,0,0,1-5.38,3.5,17.58,17.58,0,0,1-5.29.82c-4.67,0-8,0-9.94.1l-.55,2.76-2.3,12.78q-1.38,7.92-3,16.38t-2.72,12.7q-2.76,11-6.62,14.72c3.07.24,5.4.46,7,.64q8.46.92,13.8,1a17.52,17.52,0,0,1-12.42,5.15q-12.78,0-17.8.28A109.38,109.38,0,0,0,0,74.52C.31,71,1.79,68.63,4.46,67.53Z"/><path class="cls-1" d="M62,12.14a3,3,0,0,1-.92-2,4.14,4.14,0,0,1,.78-2.21,32.6,32.6,0,0,1,2.44-3.13A19.09,19.09,0,0,0,67.53,0a3.5,3.5,0,0,1,2.39,1A3,3,0,0,1,71,3.22a6.75,6.75,0,0,1-1.15,2.9q-1.05,1.69-3.26,4.55c-1.54,2-2.33,3.1-2.39,3.22A8.76,8.76,0,0,1,62,12.14Z"/><path class="cls-1" d="M105,67.25a7.34,7.34,0,0,1-1.84-5.15,15,15,0,0,1,.41-3.27,31.64,31.64,0,0,1,1-3.35,20.83,20.83,0,0,0,1.2-5.52c0-1.84-.71-2.76-2.12-2.76s-2.91,1-4.69,2.94a90.91,90.91,0,0,0-7.18,9.66c-.73,1.1-1.84,3-3.31,5.61l-1.75,3.13a11.7,11.7,0,0,1-3.59-.64c-1.28-.43-1.93-1-1.93-1.75a29.8,29.8,0,0,1,1.93-5.89q1.84-4.78,3-8.37a20.28,20.28,0,0,0,1.15-6c0-1.84-.64-2.76-1.93-2.76q-2.48,0-6.44,3.91A58.75,58.75,0,0,0,71,57a59.61,59.61,0,0,0-6,11.92A10.7,10.7,0,0,1,61.13,68c-1.5-.62-2.25-1.14-2.25-1.57l5.89-23.55c.18-.67.84-1.27,2-1.79a7.48,7.48,0,0,1,3.08-.78,3.13,3.13,0,0,1,2.25.82A2.93,2.93,0,0,1,73,43.33,38.38,38.38,0,0,1,71.67,50a58.14,58.14,0,0,1,9.1-10.08q4.7-4,8.84-4a4.81,4.81,0,0,1,4.46,2.21,10.5,10.5,0,0,1,1.33,5.52A13.56,13.56,0,0,1,95,46.87c-.24,1-.64,2.38-1.19,4.1q6.43-9.48,13.34-9.48a5.7,5.7,0,0,1,4.83,2,7.86,7.86,0,0,1,1.52,4.92,27.72,27.72,0,0,1-1.84,8.28c-.06.25-.3,1-.69,2.39a12.25,12.25,0,0,0-.6,3.32c0,1.65.77,2.48,2.3,2.48q3.31,0,6.48-4.23a57.49,57.49,0,0,0,5.94-10.12l1.56,1.93a41.44,41.44,0,0,1-6.85,11.87q-4.18,5-9.62,5A6.72,6.72,0,0,1,105,67.25Z"/><path class="cls-1" d="M157.78,72.54a17.79,17.79,0,0,1-7.73-5.7,14.72,14.72,0,0,1-2.94-9.25q0-6.81,4.23-9.8a16.78,16.78,0,0,1,9.93-3,22.92,22.92,0,0,0-4.46,6.35,15.47,15.47,0,0,0-1.52,6.44,11.09,11.09,0,0,0,3.82,8.47q3.82,3.5,10.63,3.49A23.86,23.86,0,0,0,178,68.13a15,15,0,0,0,6.35-4.28,10,10,0,0,0,2.44-6.72,10.14,10.14,0,0,0-1.93-6.07,19.39,19.39,0,0,0-4.74-4.6A84.22,84.22,0,0,0,172.5,42q-5.07-2.76-8.19-4.87a19.64,19.64,0,0,1-5.24-5.2A12.23,12.23,0,0,1,157,24.75a21.85,21.85,0,0,1,3.4-11,28.14,28.14,0,0,1,9.57-9.66A25.42,25.42,0,0,1,183.72.18q11.5,0,11.5,9.66A29,29,0,0,1,193,20.29a57.66,57.66,0,0,1-5.11,10.16q-4.05-.82-4.05-4.69a13.88,13.88,0,0,1,.69-4c.46-1.5,1.12-3.3,2-5.38q1.29-3.49,1.93-5.52a12.27,12.27,0,0,0,.65-3.68A3.24,3.24,0,0,0,188,4.55a6.21,6.21,0,0,0-3.82-.87,17.59,17.59,0,0,0-10.12,3.13,24.44,24.44,0,0,0-7.31,7.59A16.09,16.09,0,0,0,164,22.63a8,8,0,0,0,1.66,5,15.58,15.58,0,0,0,4.19,3.82c1.68,1.07,4,2.38,6.85,3.91q5.43,2.94,8.69,5.15a20.76,20.76,0,0,1,5.62,5.7,14.75,14.75,0,0,1,2.34,8.38,16.39,16.39,0,0,1-3.63,10.58,23.31,23.31,0,0,1-9.48,6.9,31.72,31.72,0,0,1-12.1,2.39A28,28,0,0,1,157.78,72.54Z"/><path class="cls-1" d="M199.5,66.88a10.59,10.59,0,0,1-1.7-6.16,21.86,21.86,0,0,1,1.61-8,21.17,21.17,0,0,1,4.18-6.9q2.58-2.76,5.24-2.76a7.81,7.81,0,0,1,2.86.73,12.75,12.75,0,0,1,3-7A8.65,8.65,0,0,1,221.53,34q3.67,0,5.43,2.07a8.08,8.08,0,0,1,1.75,5.38,19.78,19.78,0,0,1-1.7,7.36,52.52,52.52,0,0,1-4.37,8.28,5.63,5.63,0,0,0,2.57.55,11,11,0,0,0,5.52-1.7,10.88,10.88,0,0,0,4.51-5.2L236.9,52a15.75,15.75,0,0,1-5.2,6.72,11.62,11.62,0,0,1-6.76,2.3,14.72,14.72,0,0,1-4.61-.83,32.25,32.25,0,0,1-7.45,6.62A14.69,14.69,0,0,1,205,69.37C202.46,69.37,200.63,68.54,199.5,66.88Zm12.83-4a30.93,30.93,0,0,0,4.79-4.7q-5.25-4.59-5.52-13.52-1.11.56-2.67,3.4a35.32,35.32,0,0,0-2.67,6.35,20.49,20.49,0,0,0-1.1,6.07q0,4.25,3.12,4.24A7.23,7.23,0,0,0,212.33,62.84Zm11-14.72a17.66,17.66,0,0,0,1.51-6.63q0-4.05-2.57-4.05a3.76,3.76,0,0,0-2.49,1.2,9,9,0,0,0-2.11,3.17,11.27,11.27,0,0,0-.83,4.37,18.22,18.22,0,0,0,.74,4.83,11.29,11.29,0,0,0,1.93,4.19A40.47,40.47,0,0,0,223.33,48.12Z"/><path class="cls-1" d="M235.05,66.33a11.36,11.36,0,0,1-2-6.71,30.28,30.28,0,0,1,1.47-8.28A45.29,45.29,0,0,1,238,42.69q2-3.67,3.45-3.68a5,5,0,0,1,2,.69,9.62,9.62,0,0,1,2.35,1.7,42.73,42.73,0,0,0-4,8.19,26.12,26.12,0,0,0-2.06,9.2,13.84,13.84,0,0,0,.5,3.63,2.21,2.21,0,0,0,2.26,1.89q3.39,0,8.14-7.59a119.51,119.51,0,0,0,8.14-15.41q5.52.91,5.52,3.13a24.77,24.77,0,0,1-1.1,2.66q-1.94,4.51-3.32,8.38a20.39,20.39,0,0,0-1.38,6.71c0,2.15.83,3.22,2.49,3.22a8.94,8.94,0,0,0,4.64-1.79,27.28,27.28,0,0,0,5.57-5.15,35.85,35.85,0,0,0,5-7.78l1.38,1.11a34.88,34.88,0,0,1-5.25,8.92,27,27,0,0,1-6.94,6.21,13.86,13.86,0,0,1-7.13,2.25c-2.7,0-4.44-.93-5.2-2.8a20.09,20.09,0,0,1-1.15-7.5,47.81,47.81,0,0,1-5.89,7.54,8.18,8.18,0,0,1-5.79,2.76A6,6,0,0,1,235.05,66.33Z"/><path class="cls-1" d="M285.19,67a6,6,0,0,1-2.11-4.83,12.18,12.18,0,0,1,.69-3.82,47.67,47.67,0,0,1,2.07-5c.79-1.72,1.41-3.17,1.84-4.37a9.53,9.53,0,0,0,.64-3.17c0-2.33-1.53-4.3-4.6-5.89a100.46,100.46,0,0,1-4.28,9.29q-2.43,4.7-4.37,7.91l-1.38-2.67a106.72,106.72,0,0,0,7.46-16.65,3.32,3.32,0,0,1-.92-2.48,7.75,7.75,0,0,1,1.47-4.51c1-1.41,1.93-2.12,2.85-2.12a1.76,1.76,0,0,1,1.52,1.11,4.07,4.07,0,0,1,.6,1.84,7,7,0,0,1-.42,1.61c-.27.83-.47,1.42-.6,1.79a2.11,2.11,0,0,0,.74,1.24A18.65,18.65,0,0,0,288.78,38a26.23,26.23,0,0,1,5,4.09,7.6,7.6,0,0,1,1.79,5.29,12.49,12.49,0,0,1-.69,4,44.45,44.45,0,0,1-2.07,4.87c-1.35,2.7-2,4.64-2,5.8,0,1.41.76,2.12,2.3,2.12a11,11,0,0,0,6-2.21,30,30,0,0,0,6-5.38,27,27,0,0,0,4-5.94l2.21,1.66a31.17,31.17,0,0,1-5.15,7.91,29.74,29.74,0,0,1-7.41,6.16,15.85,15.85,0,0,1-8.05,2.4A8.22,8.22,0,0,1,285.19,67Z"/><path class="cls-1" d="M306.86,68.63a8,8,0,0,1-2.16-6q0-5.32,3.91-12a38.45,38.45,0,0,1,10-11.22q6.07-4.61,12.14-4.6a10.85,10.85,0,0,1,6.77,2.07,6.39,6.39,0,0,1,2.71,5.29q0,4.23-5.24,4.41c2.2.68,3.31,1.6,3.31,2.76a5,5,0,0,1-.65,1.94c-.43.86-.92,1.74-1.47,2.66a41,41,0,0,0-2.3,4.19,8.12,8.12,0,0,0-.83,3.36,3.9,3.9,0,0,0,.69,2.34,2.37,2.37,0,0,0,2.07,1q2.58,0,6.58-3.59a38.49,38.49,0,0,0,7.78-10.76l1.74,1.75a36.72,36.72,0,0,1-8.46,12.28q-5.06,4.63-10.21,4.64a6.87,6.87,0,0,1-5.66-2.43,8.6,8.6,0,0,1-2-5.57,51.05,51.05,0,0,1-7.08,7.27,10,10,0,0,1-6.26,2.3A7.38,7.38,0,0,1,306.86,68.63Zm14.81-7.22a139.67,139.67,0,0,0,9.71-12.1l1.84-2.48a.82.82,0,0,1,.73-.46l.37.09a11.32,11.32,0,0,0,.46-3.4q0-4.79-3.86-4.79-4.05,0-8.47,4.33a38,38,0,0,0-7.4,10.3q-3,6-3,10.21a4,4,0,0,0,.5,2.26,1.87,1.87,0,0,0,1.61.69Q317.4,66.06,321.67,61.41Z"/><path class="cls-1" d="M349.68,69.92c-1.84-2.15-2.76-5.15-2.76-9q0-8.64,5.52-23.13A146.73,146.73,0,0,1,365.05,12Q372.13.73,376.18.74a3,3,0,0,1,2.71,1.93A10.54,10.54,0,0,1,380,7.08q0,4.42-3,11.55a65.25,65.25,0,0,1-8,13.66A35.38,35.38,0,0,1,358.61,42a38.41,38.41,0,0,0-2.72,7.87,41.76,41.76,0,0,0-1.42,10.53,15.34,15.34,0,0,0,1.15,6.49,3.81,3.81,0,0,0,3.63,2.44,8.58,8.58,0,0,0,5.15-2.17,17,17,0,0,0,4.51-5.38,12.71,12.71,0,0,1-5.1-5.1,14.38,14.38,0,0,1-1.8-7,10.75,10.75,0,0,1,2.39-7.22,7.55,7.55,0,0,1,6-2.81,6,6,0,0,1,5,2.35c1.23,1.56,1.84,3.85,1.84,6.85a27.56,27.56,0,0,1-2.76,11.59l1.66.09a9.17,9.17,0,0,0,7-2.94A29.58,29.58,0,0,0,388,50.23l1.38,1.93a21.77,21.77,0,0,1-5.85,8.42A15.48,15.48,0,0,1,373,63.2a24.92,24.92,0,0,1-6.72,7.23,14.72,14.72,0,0,1-8.64,2.71Q352.44,73.14,349.68,69.92Zm17.95-42.64a75.4,75.4,0,0,0,5.7-10.58c1.47-3.41,2.24-5.84,2.3-7.32q-1.2.46-4.14,4.6a84.48,84.48,0,0,0-6.07,10.17,77.15,77.15,0,0,0-5.06,12A43.67,43.67,0,0,0,367.63,27.28Zm4.5,23.6a12.27,12.27,0,0,0-.73-4.79c-.49-1.1-1.14-1.65-1.94-1.65s-1.48.55-2.07,1.65a8.45,8.45,0,0,0-.87,4,12.75,12.75,0,0,0,1,4.74,8.65,8.65,0,0,0,3,3.91A19.33,19.33,0,0,0,372.13,50.88Z"/><path class="cls-1" d="M386.94,67a25.61,25.61,0,0,1-.92-7.46q0-8.28,5.2-22.49a143,143,0,0,1,11.92-25.25q6.71-11,10.94-11a3.2,3.2,0,0,1,2.9,2A9.53,9.53,0,0,1,418,7.27q0,4.23-3.08,11.31a65.81,65.81,0,0,1-8.1,13.67A36.82,36.82,0,0,1,396.51,42a44.48,44.48,0,0,0-3.13,15.64l.1,1.93a14.7,14.7,0,0,0,.82-2,83.39,83.39,0,0,1,3.87-8.65,27.8,27.8,0,0,1,5.56-7.22A11.6,11.6,0,0,1,412,38.27q4.23,0,6.16,2.72a10.72,10.72,0,0,1,1.93,6.39,13.68,13.68,0,0,1-.55,4c-.37,1.22-.92,2.79-1.65,4.69a17.53,17.53,0,0,0-.69,1.7,16.59,16.59,0,0,0-.74,2.39A9.3,9.3,0,0,0,416.2,62c0,2,.83,2.94,2.48,2.94a8.59,8.59,0,0,0,4.79-2,28.4,28.4,0,0,0,5.43-5.43,41.74,41.74,0,0,0,4.6-7.36L435,51.7a39.48,39.48,0,0,1-8.24,12.24q-4.83,4.69-10.35,4.69a7.4,7.4,0,0,1-5.29-1.79,6.16,6.16,0,0,1-1.88-4.65,30.78,30.78,0,0,1,1.29-6.62,25.74,25.74,0,0,0,1.38-6.72q0-3.85-3.32-3.86c-2.2,0-4.06,1.15-5.56,3.45a68.56,68.56,0,0,0-5.11,10.16,57,57,0,0,1-4.05,8.51q-1.74,2.81-4,2.81C388.51,69.92,387.56,68.94,386.94,67Zm18.77-39.75a74.48,74.48,0,0,0,5.71-10.53c1.47-3.41,2.2-5.84,2.2-7.32q-1.1.46-3.95,4.47a84,84,0,0,0-6,10,89.6,89.6,0,0,0-5.25,12.19A43.16,43.16,0,0,0,405.71,27.23Z"/><path class="cls-2" d="M120.79,116.44l-1.31,3.16h-.65l3.81-9.17H123l3.85,9.17h-.72l-1.32-3.16Zm2-5c-.14.42-.27.77-.38,1L121,115.89h3.6l-1.39-3.36C123,112,122.86,111.65,122.8,111.47Z"/><path class="cls-2" d="M136.54,117.17l2.91-7.42h.41l2.54,7.47c.19.59.32,1,.39,1.28q.12-.47.39-1.26l2.59-7.68h.7L143,119.68h-.39l-2.6-7.44a3.16,3.16,0,0,0-.12-.37l-.1-.32q0-.14-.09-.24l0-.17,0-.08c-.11.34-.25.73-.43,1.16l-2.94,7.46h-.39l-3.52-10.12h.74l2.57,7.55c.12.34.22.64.3.91s.13.42.14.45A8.88,8.88,0,0,1,136.54,117.17Z"/><path class="cls-2" d="M148.38,119.6v-9.12h4.25V111H149v3.32h3.26v.55H149V119h3.75v.59Z"/><path class="cls-2" d="M155.34,110.53c.67-.06,1.35-.09,2-.09a3.16,3.16,0,0,1,1.81.51,1.66,1.66,0,0,1,.75,1.47,2.4,2.4,0,0,1-.4,1.35,2.84,2.84,0,0,1-1,.94,3.26,3.26,0,0,1,1.52,1,2.31,2.31,0,0,1,.6,1.56,2.23,2.23,0,0,1-.76,1.83,3.39,3.39,0,0,1-2.16.62c-.93,0-1.75,0-2.46-.1Zm4,1.88a1.2,1.2,0,0,0-.58-1.06,2.46,2.46,0,0,0-1.38-.38c-.53,0-1,0-1.37,0v3.44c.81,0,1.46,0,1.95.07a2.92,2.92,0,0,0,1-.87A2,2,0,0,0,159.32,112.41Zm-2.7,2.58H156v4q.6.06,1.95.06a2.24,2.24,0,0,0,1.51-.51,1.62,1.62,0,0,0,.6-1.29,1.86,1.86,0,0,0-.6-1.37,3.44,3.44,0,0,0-1.55-.82A6.34,6.34,0,0,0,156.62,115Z"/><path class="cls-2" d="M171.5,109.46a5.5,5.5,0,0,1,3.88,1.44,5.06,5.06,0,0,1,1.56,3.91,5.85,5.85,0,0,1-.4,2.21,4,4,0,0,1-1.11,1.54,5.57,5.57,0,0,1-3.6,1.16c-1,0-2,0-3.22-.15v-10C169.56,109.49,170.53,109.46,171.5,109.46Zm.33,9.64A4.57,4.57,0,0,0,175,118a4.12,4.12,0,0,0,1.2-3.24,4.53,4.53,0,0,0-1.36-3.44,4.69,4.69,0,0,0-3.35-1.27c-.85,0-1.59,0-2.22.07V119A21.18,21.18,0,0,0,171.83,119.1Z"/><path class="cls-2" d="M179.88,119.6v-9.12h4.26V111h-3.61v3.32h3.26v.55h-3.26V119h3.75v.59Z"/><path class="cls-2" d="M189.84,117.69l3-7.21h.68l-3.92,9.17h-.38l-3.91-9.17h.7l3.44,8.1C189.53,118.44,189.65,118.14,189.84,117.69Z"/><path class="cls-2" d="M195.41,119.6v-9.12h4.26V111h-3.61v3.32h3.26v.55h-3.26V119h3.75v.59Z"/><path class="cls-2" d="M202.39,119.6v-9.12H203V119h4.18v.59Z"/><path class="cls-2" d="M212.6,119.74a4.37,4.37,0,0,1-3.27-1.37,4.86,4.86,0,0,1,0-6.66,4.59,4.59,0,0,1,6.54,0,4.86,4.86,0,0,1,0,6.66A4.37,4.37,0,0,1,212.6,119.74Zm0-8.82a3.69,3.69,0,0,0-2.8,1.19,4.38,4.38,0,0,0,0,5.85,3.9,3.9,0,0,0,5.61,0,4.44,4.44,0,0,0,0-5.85A3.69,3.69,0,0,0,212.6,110.92Z"/><path class="cls-2" d="M220,119.6v-9.06a19.64,19.64,0,0,1,2.22-.11,3.21,3.21,0,0,1,2,.62,2.25,2.25,0,0,1,.81,1.89,2.46,2.46,0,0,1-1.11,2.07,4.32,4.32,0,0,1-2.62.81h-.16v-.45h.1a3.68,3.68,0,0,0,2.18-.66,2,2,0,0,0,.92-1.71,1.75,1.75,0,0,0-.65-1.53A2.83,2.83,0,0,0,222,111c-.37,0-.81,0-1.32.05v8.56Z"/><path class="cls-2" d="M227.41,119.6v-9.12h4.25V111h-3.6v3.32h3.25v.55h-3.25V119h3.74v.59Z"/><path class="cls-2" d="M234.39,119.6v-9.07c.8-.07,1.49-.1,2.05-.1a3.34,3.34,0,0,1,2.13.66,2.3,2.3,0,0,1,.84,1.91,2.73,2.73,0,0,1-.47,1.53,4.36,4.36,0,0,1-1.09,1.13c1.12,1.48,1.81,2.37,2.07,2.66a2.91,2.91,0,0,0,1.74.94v.43a3.26,3.26,0,0,1-1.28-.23,3,3,0,0,1-1-.73c-.32-.35-1-1.28-2.12-2.8-.76,0-1.51,0-2.24-.07v3.74Zm2.52-4.2a1.71,1.71,0,0,0,1.18-.73,2.55,2.55,0,0,0,.64-1.7,1.78,1.78,0,0,0-.66-1.48,2.81,2.81,0,0,0-1.72-.5c-.37,0-.81,0-1.32.05v4.29C235.71,115.37,236.33,115.4,236.91,115.4Z"/><path class="cls-2" d="M254.14,115.73h.55A4,4,0,0,1,254,118l1.46,1.58h-.85l-1-1.11a5.13,5.13,0,0,1-1.55.92,4.54,4.54,0,0,1-1.68.34,3.5,3.5,0,0,1-2.13-.57,1.87,1.87,0,0,1-.76-1.59,2.63,2.63,0,0,1,.6-1.74,8.66,8.66,0,0,1,1.7-1.45c-1.12-1.2-1.67-2.12-1.67-2.77a1.93,1.93,0,0,1,.63-1.52,2.7,2.7,0,0,1,1.84-.55,2.55,2.55,0,0,1,1.81.57,1.79,1.79,0,0,1,.6,1.36,2.26,2.26,0,0,1-.6,1.49,11.3,11.3,0,0,1-1.67,1.53l2.91,3.11a2.56,2.56,0,0,0,.4-.86A3.8,3.8,0,0,0,254.14,115.73Zm-3.75,3.47a4.19,4.19,0,0,0,2.74-1.13l-3-3.21c-1.39.85-2.08,1.69-2.08,2.53a1.6,1.6,0,0,0,.61,1.34A2.75,2.75,0,0,0,250.39,119.2Zm1.91-7.59a1.38,1.38,0,0,0-.45-1.1,2,2,0,0,0-1.29-.39c-1.25,0-1.88.5-1.88,1.49a1.77,1.77,0,0,0,.25.85,3.83,3.83,0,0,0,.52.77c.19.21.45.48.79.82C251.61,113.14,252.3,112.33,252.3,111.61Z"/><path class="cls-2" d="M265.34,109.46a5.5,5.5,0,0,1,3.88,1.44,5.06,5.06,0,0,1,1.56,3.91,5.66,5.66,0,0,1-.4,2.21,4,4,0,0,1-1.1,1.54,5.62,5.62,0,0,1-3.61,1.16c-.95,0-2,0-3.22-.15v-10C263.41,109.49,264.37,109.46,265.34,109.46Zm.33,9.64a4.57,4.57,0,0,0,3.18-1.07,4.12,4.12,0,0,0,1.2-3.24,4.5,4.5,0,0,0-1.36-3.44,4.69,4.69,0,0,0-3.35-1.27c-.85,0-1.59,0-2.21.07V119A21,21,0,0,0,265.67,119.1Z"/><path class="cls-2" d="M273.73,119.6v-9.12H278V111h-3.61v3.32h3.26v.55h-3.26V119h3.75v.59Z"/><path class="cls-2" d="M282.54,110.88a2,2,0,0,0-1.23.36,1.23,1.23,0,0,0-.48,1,1.85,1.85,0,0,0,.63,1.36,8.86,8.86,0,0,0,1.16.92c.47.32.8.55,1,.69s.39.34.64.58a2.18,2.18,0,0,1,.69,1.59,2.09,2.09,0,0,1-.78,1.76,3.49,3.49,0,0,1-2.18.59,3.64,3.64,0,0,1-2.33-.73l.33-.49a3.57,3.57,0,0,0,2,.65,2.71,2.71,0,0,0,1.66-.45,1.48,1.48,0,0,0,.6-1.26,1.82,1.82,0,0,0-.61-1.3,8.05,8.05,0,0,0-1.13-.91c-.47-.33-.8-.56-1-.71s-.4-.34-.66-.58a2.3,2.3,0,0,1-.71-1.66,1.79,1.79,0,0,1,.66-1.47,2.87,2.87,0,0,1,1.85-.53,4.72,4.72,0,0,1,2.12.46l-.24.52A4.57,4.57,0,0,0,282.54,110.88Z"/><path class="cls-2" d="M287.51,119.6v-9.12h.65v9.12Z"/><path class="cls-2" d="M295.33,110.92a3.33,3.33,0,0,0-2.61,1.19,4.19,4.19,0,0,0-1.06,2.91,4,4,0,0,0,1.19,2.93,3.82,3.82,0,0,0,2.81,1.2,6.7,6.7,0,0,0,2.52-.38V115h.65v4a5.92,5.92,0,0,1-3.1.68,4.64,4.64,0,0,1-3.39-1.37A4.53,4.53,0,0,1,291,115a4.73,4.73,0,0,1,1.24-3.34,4.17,4.17,0,0,1,3.21-1.35,10.2,10.2,0,0,1,3.1.49l-.17.54A10.18,10.18,0,0,0,295.33,110.92Z"/><path class="cls-2" d="M301.89,119.6v-9.17h.31l6,6.88c.22.24.41.48.6.72s.28.36.29.37q0-.33,0-1.32v-6.6h.64v9.17h-.31l-6.09-7-.77-.94q0,.28,0,1.32v6.56Z"/><path class="cls-2" d="M313.05,119.6v-9.12h4.26V111H313.7v3.32H317v.55H313.7V119h3.75v.59Z"/><path class="cls-2" d="M320,119.6v-9.07c.8-.07,1.49-.1,2.05-.1a3.34,3.34,0,0,1,2.13.66,2.28,2.28,0,0,1,.85,1.91,2.66,2.66,0,0,1-.48,1.53,4.5,4.5,0,0,1-1.08,1.13c1.11,1.48,1.8,2.37,2.06,2.66a3,3,0,0,0,1.74.94v.43a3.26,3.26,0,0,1-1.28-.23,3,3,0,0,1-1-.73c-.33-.35-1-1.28-2.13-2.8-.76,0-1.5,0-2.23-.07v3.74Zm2.53-4.2a1.73,1.73,0,0,0,1.18-.73,2.54,2.54,0,0,0,.63-1.7,1.75,1.75,0,0,0-.66-1.48A2.78,2.78,0,0,0,322,111c-.38,0-.82,0-1.32.05v4.29C321.35,115.37,322,115.4,322.56,115.4Z"/></g></g></svg>