<svg xmlns="http://www.w3.org/2000/svg" viewBox="0 0 340.41 95.98"><defs><style>.cls-1{fill:#fff;}</style></defs><title>name_2</title><g id="Layer_2" data-name="Layer 2"><g id="Layer_1-2" data-name="Layer 1"><path class="cls-1" d="M3.49,52.85a23.94,23.94,0,0,1,8.89-1.3,67,67,0,0,0,3.89-11.3q1.8-6.84,4.47-18.72.29-1.23,1.62-7.2a84.16,84.16,0,0,1,2.41-9.07,88.63,88.63,0,0,0-9,.5Q12,6.2,7.7,7A6.93,6.93,0,0,1,12.2,1.8Q16,.22,23.69.22A167.63,167.63,0,0,1,44.57,1.8a11.23,11.23,0,0,1-4.21,2.74,13.75,13.75,0,0,1-4.14.64q-5.47,0-7.78.08L28,7.42l-1.8,10q-1.08,6.2-2.34,12.82t-2.13,9.94q-2.16,8.64-5.18,11.52c2.4.19,4.22.36,5.47.5q6.63.72,10.8.79a13.71,13.71,0,0,1-9.72,4q-10,0-13.93.22A84.81,84.81,0,0,0,0,58.32C.24,55.54,1.4,53.71,3.49,52.85Z"/><path class="cls-1" d="M48.53,9.5a2.35,2.35,0,0,1-.72-1.58,3.21,3.21,0,0,1,.61-1.73,25.65,25.65,0,0,1,1.91-2.45A15,15,0,0,0,52.85,0a2.72,2.72,0,0,1,1.87.79,2.35,2.35,0,0,1,.86,1.73,5.41,5.41,0,0,1-.9,2.27,43.46,43.46,0,0,1-2.55,3.56c-1.2,1.59-1.83,2.43-1.88,2.52A6.88,6.88,0,0,1,48.53,9.5Z"/><path class="cls-1" d="M82.15,52.63a5.75,5.75,0,0,1-1.44-4A11.84,11.84,0,0,1,81,46a24.65,24.65,0,0,1,.76-2.62,16.53,16.53,0,0,0,.94-4.32c0-1.44-.56-2.16-1.66-2.16s-2.28.77-3.67,2.3a72.07,72.07,0,0,0-5.62,7.56c-.57.86-1.44,2.33-2.59,4.39l-1.37,2.45a9.12,9.12,0,0,1-2.81-.5c-1-.34-1.51-.8-1.51-1.37A23.37,23.37,0,0,1,65,47.16c1-2.49,1.74-4.68,2.34-6.55a15.92,15.92,0,0,0,.9-4.68c0-1.44-.5-2.16-1.51-2.16q-1.93,0-5,3.06a45.74,45.74,0,0,0-6.12,7.77,47.34,47.34,0,0,0-4.68,9.33,8.35,8.35,0,0,1-3.06-.72c-1.17-.48-1.76-.89-1.76-1.23l4.61-18.43c.14-.53.66-1,1.54-1.4a5.86,5.86,0,0,1,2.42-.61,2.46,2.46,0,0,1,1.76.64,2.27,2.27,0,0,1,.68,1.73,29.09,29.09,0,0,1-1,5.19,45.54,45.54,0,0,1,7.12-7.89q3.67-3.13,6.92-3.13a3.76,3.76,0,0,1,3.49,1.73,8.27,8.27,0,0,1,1,4.32,10.89,10.89,0,0,1-.28,2.55c-.2.8-.51,1.86-.94,3.21q5-7.41,10.44-7.42A4.46,4.46,0,0,1,87.66,34a6.16,6.16,0,0,1,1.19,3.85,21.55,21.55,0,0,1-1.44,6.48c0,.19-.23.82-.54,1.87a9.32,9.32,0,0,0-.47,2.6c0,1.29.6,1.94,1.8,1.94q2.6,0,5.07-3.31a45,45,0,0,0,4.65-7.92L99.14,41a32.44,32.44,0,0,1-5.36,9.29c-2.19,2.59-4.69,3.89-7.53,3.89A5.25,5.25,0,0,1,82.15,52.63Z"/><path class="cls-1" d="M123.48,56.77a13.82,13.82,0,0,1-6-4.46,11.46,11.46,0,0,1-2.3-7.24q0-5.32,3.31-7.67a13.11,13.11,0,0,1,7.77-2.34,18,18,0,0,0-3.49,5,12.11,12.11,0,0,0-1.19,5,8.69,8.69,0,0,0,3,6.63q3,2.73,8.32,2.73a18.75,18.75,0,0,0,6.44-1.11,11.66,11.66,0,0,0,5-3.35,8.19,8.19,0,0,0,.39-10,15.09,15.09,0,0,0-3.7-3.6A68.7,68.7,0,0,0,135,32.83q-4-2.16-6.41-3.81a15.41,15.41,0,0,1-4.1-4.07,9.59,9.59,0,0,1-1.66-5.58,17.16,17.16,0,0,1,2.66-8.64A22,22,0,0,1,133,3.17a19.91,19.91,0,0,1,10.8-3q9,0,9,7.56A22.78,22.78,0,0,1,151,15.88a44.67,44.67,0,0,1-4,7.95q-3.17-.64-3.17-3.67a10.88,10.88,0,0,1,.54-3.13c.36-1.18.88-2.58,1.55-4.21.67-1.83,1.18-3.27,1.51-4.32A9.52,9.52,0,0,0,148,5.62a2.54,2.54,0,0,0-.83-2.06,4.88,4.88,0,0,0-3-.68,13.8,13.8,0,0,0-7.92,2.45,19.13,19.13,0,0,0-5.72,5.94,12.59,12.59,0,0,0-2.13,6.44,6.29,6.29,0,0,0,1.3,3.89,12.13,12.13,0,0,0,3.28,3q2,1.26,5.36,3.06,4.24,2.31,6.8,4a16.09,16.09,0,0,1,4.39,4.46,11.46,11.46,0,0,1,1.84,6.56A12.84,12.84,0,0,1,148.5,51a18.21,18.21,0,0,1-7.42,5.4,24.9,24.9,0,0,1-9.47,1.87A21.81,21.81,0,0,1,123.48,56.77Z"/><path class="cls-1" d="M156.13,52.34a8.29,8.29,0,0,1-1.33-4.82,17.21,17.21,0,0,1,1.26-6.26,16.71,16.71,0,0,1,3.27-5.4,5.73,5.73,0,0,1,4.11-2.16,6.16,6.16,0,0,1,2.23.57A10,10,0,0,1,168,28.8a6.78,6.78,0,0,1,5.36-2.16,5.26,5.26,0,0,1,4.25,1.62A6.31,6.31,0,0,1,179,32.47a15.57,15.57,0,0,1-1.33,5.76,40.53,40.53,0,0,1-3.42,6.48,4.38,4.38,0,0,0,2,.43,8.65,8.65,0,0,0,4.32-1.33,8.55,8.55,0,0,0,3.53-4.07l1.3.94a12.3,12.3,0,0,1-4.07,5.26,9.09,9.09,0,0,1-5.29,1.8,11.45,11.45,0,0,1-3.6-.65,25.47,25.47,0,0,1-5.84,5.18,11.46,11.46,0,0,1-6.19,2A4.81,4.81,0,0,1,156.13,52.34Zm10-3.16a24.33,24.33,0,0,0,3.75-3.68q-4.11-3.6-4.32-10.58a6.6,6.6,0,0,0-2.09,2.66,27.79,27.79,0,0,0-2.09,5,16,16,0,0,0-.86,4.75c0,2.21.81,3.32,2.44,3.32A5.63,5.63,0,0,0,166.17,49.18Zm8.61-11.52A13.81,13.81,0,0,0,176,32.47c0-2.11-.67-3.17-2-3.17a3,3,0,0,0-1.95.94,7.08,7.08,0,0,0-1.65,2.48,8.87,8.87,0,0,0-.65,3.42,14.33,14.33,0,0,0,.58,3.78,8.72,8.72,0,0,0,1.51,3.28A31.64,31.64,0,0,0,174.78,37.66Z"/><path class="cls-1" d="M184,51.91a8.82,8.82,0,0,1-1.59-5.25,24,24,0,0,1,1.15-6.48,35.87,35.87,0,0,1,2.7-6.77q1.56-2.88,2.7-2.88a3.87,3.87,0,0,1,1.55.54,7.28,7.28,0,0,1,1.84,1.33,33.28,33.28,0,0,0-3.13,6.41,20.44,20.44,0,0,0-1.62,7.2,11.08,11.08,0,0,0,.39,2.84,1.73,1.73,0,0,0,1.77,1.48q2.66,0,6.37-5.94a93.19,93.19,0,0,0,6.37-12.06c2.88.48,4.32,1.29,4.32,2.45a19.93,19.93,0,0,1-.86,2.08c-1,2.36-1.88,4.54-2.6,6.56a16,16,0,0,0-1.08,5.25q0,2.52,1.95,2.52a7,7,0,0,0,3.63-1.4,21.45,21.45,0,0,0,4.36-4,28.34,28.34,0,0,0,3.89-6.09l1.08.87a27.38,27.38,0,0,1-4.11,7,21.28,21.28,0,0,1-5.43,4.86A10.81,10.81,0,0,1,202,54.14q-3.17,0-4.07-2.19a15.8,15.8,0,0,1-.9-5.87,36.92,36.92,0,0,1-4.61,5.9,6.4,6.4,0,0,1-4.53,2.16A4.69,4.69,0,0,1,184,51.91Z"/><path class="cls-1" d="M223.2,52.45a4.67,4.67,0,0,1-1.66-3.78,9.53,9.53,0,0,1,.54-3,37.84,37.84,0,0,1,1.62-3.92q.93-2,1.44-3.42a7.62,7.62,0,0,0,.5-2.48c0-1.83-1.2-3.36-3.6-4.61q-1.44,3.6-3.34,7.27t-3.42,6.19l-1.08-2.09a84,84,0,0,0,5.83-13,2.63,2.63,0,0,1-.72-1.94,6.07,6.07,0,0,1,1.15-3.53c.77-1.1,1.51-1.66,2.23-1.66a1.37,1.37,0,0,1,1.19.87,3.19,3.19,0,0,1,.47,1.44A5.41,5.41,0,0,1,224,26c-.21.65-.37,1.11-.46,1.4a1.58,1.58,0,0,0,.57,1A14.06,14.06,0,0,0,226,29.74a20.64,20.64,0,0,1,3.93,3.2,6,6,0,0,1,1.4,4.14,9.78,9.78,0,0,1-.54,3.17,34.74,34.74,0,0,1-1.62,3.81,12.39,12.39,0,0,0-1.58,4.54c0,1.11.6,1.66,1.8,1.66a8.59,8.59,0,0,0,4.71-1.73,23.18,23.18,0,0,0,4.68-4.21,21.37,21.37,0,0,0,3.14-4.65l1.72,1.3a24.4,24.4,0,0,1-4,6.19A23.31,23.31,0,0,1,233.82,52a12.45,12.45,0,0,1-6.3,1.88A6.42,6.42,0,0,1,223.2,52.45Z"/><path class="cls-1" d="M240.15,53.71A6.23,6.23,0,0,1,238.46,49q0-4.17,3.06-9.36a30.14,30.14,0,0,1,7.81-8.78,15.72,15.72,0,0,1,9.5-3.6,8.49,8.49,0,0,1,5.3,1.62,5,5,0,0,1,2.12,4.14q0,3.31-4.1,3.45c1.73.53,2.59,1.25,2.59,2.16a4,4,0,0,1-.5,1.52c-.34.67-.73,1.36-1.16,2.08a31.12,31.12,0,0,0-1.8,3.28,6.34,6.34,0,0,0-.65,2.63,3.12,3.12,0,0,0,.54,1.83,1.87,1.87,0,0,0,1.62.76q2,0,5.15-2.81A30.07,30.07,0,0,0,274,39.53l1.37,1.37a28.84,28.84,0,0,1-6.63,9.61q-4,3.63-8,3.63a5.38,5.38,0,0,1-4.43-1.9,6.77,6.77,0,0,1-1.55-4.36,39.92,39.92,0,0,1-5.54,5.69,7.84,7.84,0,0,1-4.9,1.8A5.76,5.76,0,0,1,240.15,53.71Zm11.59-5.65a107.83,107.83,0,0,0,7.6-9.47l1.44-1.94a.64.64,0,0,1,.58-.36l.28.07A9,9,0,0,0,262,33.7c0-2.5-1-3.75-3-3.75s-4.32,1.13-6.62,3.39a29.62,29.62,0,0,0-5.8,8.06,18.63,18.63,0,0,0-2.34,8,3,3,0,0,0,.4,1.77,1.45,1.45,0,0,0,1.26.54C247.55,51.7,249.51,50.48,251.74,48.06Z"/><path class="cls-1" d="M273.67,54.72q-2.16-2.52-2.16-7.06,0-6.76,4.32-18.1A114,114,0,0,1,285.69,9.4Q291.24.58,294.4.58a2.34,2.34,0,0,1,2.13,1.51,8.27,8.27,0,0,1,.82,3.45q0,3.46-2.37,9a50.81,50.81,0,0,1-6.23,10.69,27.82,27.82,0,0,1-8.1,7.56A30,30,0,0,0,278.53,39a32.35,32.35,0,0,0-1.12,8.24,12,12,0,0,0,.9,5.08,3,3,0,0,0,2.84,1.91,6.73,6.73,0,0,0,4-1.7,13.25,13.25,0,0,0,3.52-4.21,10,10,0,0,1-4-4,11.24,11.24,0,0,1-1.41-5.51,8.38,8.38,0,0,1,1.88-5.65,5.86,5.86,0,0,1,4.68-2.2,4.66,4.66,0,0,1,3.88,1.84,8.54,8.54,0,0,1,1.44,5.36A21.57,21.57,0,0,1,293,47.23l1.3.07A7.15,7.15,0,0,0,299.8,45a23.26,23.26,0,0,0,3.82-5.69l1.08,1.51a17,17,0,0,1-4.57,6.59,10.38,10.38,0,0,1-6.74,2.13,11,11,0,0,1-1.51-.08,19.64,19.64,0,0,1-5.25,5.66,11.57,11.57,0,0,1-6.77,2.12A7.7,7.7,0,0,1,273.67,54.72Zm14-33.37a59.56,59.56,0,0,0,4.46-8.28A19.28,19.28,0,0,0,294,7.34q-.93.36-3.24,3.6a67.14,67.14,0,0,0-4.75,8,61.62,61.62,0,0,0-4,9.4A34,34,0,0,0,287.71,21.35Zm3.52,18.47a9.7,9.7,0,0,0-.57-3.75c-.39-.86-.89-1.29-1.51-1.29s-1.17.43-1.62,1.29a6.54,6.54,0,0,0-.69,3.1,9.93,9.93,0,0,0,.76,3.71,6.75,6.75,0,0,0,2.34,3.06A15.14,15.14,0,0,0,291.23,39.82Z"/><path class="cls-1" d="M302.83,52.42a19.6,19.6,0,0,1-.72-5.84q0-6.48,4.06-17.6A111.23,111.23,0,0,1,315.5,9.22Q320.75.58,324.07.58a2.52,2.52,0,0,1,2.26,1.58,7.53,7.53,0,0,1,.83,3.53q0,3.32-2.41,8.85a51.66,51.66,0,0,1-6.34,10.7,28.71,28.71,0,0,1-8.1,7.59,34.71,34.71,0,0,0-2.44,12.24l.07,1.51a12.73,12.73,0,0,0,.64-1.58,63.77,63.77,0,0,1,3-6.77A21.73,21.73,0,0,1,316,32.58,9.1,9.1,0,0,1,322.41,30a5.49,5.49,0,0,1,4.82,2.13,8.37,8.37,0,0,1,1.52,5,10.65,10.65,0,0,1-.44,3.1c-.28,1-.72,2.18-1.29,3.67-.1.19-.28.64-.54,1.33a12.88,12.88,0,0,0-.58,1.87,7.07,7.07,0,0,0-.18,1.48c0,1.54.65,2.3,1.95,2.3a6.76,6.76,0,0,0,3.74-1.58A22.43,22.43,0,0,0,335.66,45a32.4,32.4,0,0,0,3.6-5.76l1.15,1.22A30.76,30.76,0,0,1,334,50a11.45,11.45,0,0,1-8.09,3.67,5.78,5.78,0,0,1-4.14-1.4,4.79,4.79,0,0,1-1.48-3.64,23.53,23.53,0,0,1,1-5.18,20.11,20.11,0,0,0,1.08-5.26c0-2-.87-3-2.59-3a5.13,5.13,0,0,0-4.36,2.7,53.23,53.23,0,0,0-4,8,45.49,45.49,0,0,1-3.16,6.66c-.92,1.47-2,2.2-3.17,2.2C304.05,54.72,303.3,54,302.83,52.42Zm14.68-31.11A56.71,56.71,0,0,0,322,13.07a17.22,17.22,0,0,0,1.73-5.73q-.87.36-3.1,3.5a65.33,65.33,0,0,0-4.68,7.84,70.47,70.47,0,0,0-4.1,9.54A33.88,33.88,0,0,0,317.51,21.31Z"/><path class="cls-1" d="M86.54,92.64l-.23-1.06h0a3.13,3.13,0,0,1-1.11,1,3.49,3.49,0,0,1-1.39.25A2.49,2.49,0,0,1,82,92.21a2.1,2.1,0,0,1-.63-1.63c0-1.5,1.2-2.29,3.61-2.36l1.26,0v-.46a1.85,1.85,0,0,0-.38-1.3,1.53,1.53,0,0,0-1.2-.42,4.92,4.92,0,0,0-2.11.57l-.35-.86a5.64,5.64,0,0,1,1.21-.47,5.43,5.43,0,0,1,1.32-.17,2.86,2.86,0,0,1,2,.59,2.48,2.48,0,0,1,.64,1.9v5.08ZM84,91.85a2.3,2.3,0,0,0,1.65-.58,2.16,2.16,0,0,0,.6-1.62V89l-1.12,0a4.15,4.15,0,0,0-1.94.41,1.27,1.27,0,0,0-.6,1.16,1.17,1.17,0,0,0,.37.93A1.56,1.56,0,0,0,84,91.85Z"/><path class="cls-1" d="M99.39,92.64,98,88.27c-.09-.27-.25-.87-.49-1.82h-.05c-.18.79-.34,1.41-.48,1.84l-1.4,4.35H94.3l-2-7.45h1.18l1.1,4.28a16.23,16.23,0,0,1,.43,2H95c0-.26.13-.6.24-1s.21-.73.29-1l1.36-4.28h1.23l1.33,4.28a14.73,14.73,0,0,1,.51,2h.06q0-.24.15-.75c.07-.34.55-2.17,1.41-5.49h1.17l-2.06,7.45Z"/><path class="cls-1" d="M107.28,92.78a3.4,3.4,0,0,1-2.6-1,3.87,3.87,0,0,1-1-2.79,4.33,4.33,0,0,1,.89-2.86A2.93,2.93,0,0,1,107,85.06a2.81,2.81,0,0,1,2.22.92,3.53,3.53,0,0,1,.81,2.43v.71h-5.13a2.91,2.91,0,0,0,.66,2,2.27,2.27,0,0,0,1.77.68,6.09,6.09,0,0,0,2.38-.5v1a5.78,5.78,0,0,1-1.13.38A6.82,6.82,0,0,1,107.28,92.78ZM107,86a1.83,1.83,0,0,0-1.43.59,2.65,2.65,0,0,0-.63,1.61h3.89a2.51,2.51,0,0,0-.47-1.63A1.68,1.68,0,0,0,107,86Z"/><path class="cls-1" d="M115.41,85.07a2.79,2.79,0,0,1,2.28,1,5.37,5.37,0,0,1,0,5.69,2.74,2.74,0,0,1-2.27,1,3.19,3.19,0,0,1-1.33-.27,2.53,2.53,0,0,1-1-.83H113l-.24,1h-.81V82.07h1.13v2.57c0,.57,0,1.09,0,1.55h0A2.68,2.68,0,0,1,115.41,85.07Zm-.16,1a2,2,0,0,0-1.67.66,5.09,5.09,0,0,0,0,4.48,2,2,0,0,0,1.67.67,1.74,1.74,0,0,0,1.55-.75,3.93,3.93,0,0,0,.51-2.18,3.74,3.74,0,0,0-.51-2.17A1.78,1.78,0,0,0,115.25,86Z"/><path class="cls-1" d="M129.16,91.64h-.07a2.64,2.64,0,0,1-2.33,1.14,2.8,2.8,0,0,1-2.28-1,5.39,5.39,0,0,1,0-5.7,2.74,2.74,0,0,1,2.27-1,2.69,2.69,0,0,1,2.32,1.1h.09l0-.54,0-.52v-3h1.13V92.64h-.91Zm-2.26.19a2.07,2.07,0,0,0,1.68-.63,3.18,3.18,0,0,0,.51-2v-.24a3.74,3.74,0,0,0-.52-2.26,2,2,0,0,0-1.68-.68,1.73,1.73,0,0,0-1.52.77,3.86,3.86,0,0,0-.53,2.18,3.78,3.78,0,0,0,.52,2.16A1.78,1.78,0,0,0,126.9,91.83Z"/><path class="cls-1" d="M135.76,92.78a3.44,3.44,0,0,1-2.61-1,3.91,3.91,0,0,1-1-2.79,4.33,4.33,0,0,1,.89-2.86,2.93,2.93,0,0,1,2.38-1.06,2.78,2.78,0,0,1,2.21.92,3.49,3.49,0,0,1,.82,2.43v.71h-5.13a2.91,2.91,0,0,0,.66,2,2.27,2.27,0,0,0,1.77.68,6.09,6.09,0,0,0,2.38-.5v1a6,6,0,0,1-1.13.38A6.82,6.82,0,0,1,135.76,92.78ZM135.45,86a1.86,1.86,0,0,0-1.43.59,2.7,2.7,0,0,0-.62,1.61h3.89a2.46,2.46,0,0,0-.48-1.63A1.66,1.66,0,0,0,135.45,86Z"/><path class="cls-1" d="M142.05,92.64l-2.82-7.45h1.21l1.6,4.42a20.34,20.34,0,0,1,.64,2h0c.05-.24.21-.74.47-1.49s.86-2.4,1.79-4.94h1.21l-2.83,7.45Z"/><path class="cls-1" d="M150.54,92.78a3.44,3.44,0,0,1-2.61-1A3.91,3.91,0,0,1,147,89a4.28,4.28,0,0,1,.89-2.86,2.93,2.93,0,0,1,2.38-1.06,2.78,2.78,0,0,1,2.21.92,3.49,3.49,0,0,1,.82,2.43v.71h-5.13a2.91,2.91,0,0,0,.66,2,2.27,2.27,0,0,0,1.77.68,6.09,6.09,0,0,0,2.38-.5v1a6,6,0,0,1-1.13.38A6.82,6.82,0,0,1,150.54,92.78ZM150.23,86a1.86,1.86,0,0,0-1.43.59,2.7,2.7,0,0,0-.62,1.61h3.89a2.46,2.46,0,0,0-.48-1.63A1.66,1.66,0,0,0,150.23,86Z"/><path class="cls-1" d="M156.33,92.64H155.2V82.07h1.13Z"/><path class="cls-1" d="M165.15,88.91a4.09,4.09,0,0,1-.92,2.84,3.19,3.19,0,0,1-2.53,1,3.4,3.4,0,0,1-1.78-.47A3.08,3.08,0,0,1,158.73,91a4.69,4.69,0,0,1-.42-2,4.11,4.11,0,0,1,.91-2.84,3.23,3.23,0,0,1,2.53-1,3.12,3.12,0,0,1,2.48,1A4.1,4.1,0,0,1,165.15,88.91Zm-5.67,0a3.56,3.56,0,0,0,.57,2.18,2,2,0,0,0,1.68.74,2,2,0,0,0,1.68-.74,3.54,3.54,0,0,0,.57-2.18,3.48,3.48,0,0,0-.57-2.16,2,2,0,0,0-1.7-.73,2,2,0,0,0-1.67.72A3.49,3.49,0,0,0,159.48,88.91Z"/><path class="cls-1" d="M170.59,92.78a3.18,3.18,0,0,1-1.32-.27,2.46,2.46,0,0,1-1-.83h-.09a9.16,9.16,0,0,1,.09,1.24V96h-1.13V85.19h.92l.15,1h.06a2.62,2.62,0,0,1,1-.88,3.08,3.08,0,0,1,1.32-.27,2.77,2.77,0,0,1,2.29,1,5.37,5.37,0,0,1,0,5.69A2.77,2.77,0,0,1,170.59,92.78ZM170.43,86a2,2,0,0,0-1.65.63,3.19,3.19,0,0,0-.52,2v.25a3.73,3.73,0,0,0,.52,2.25,2,2,0,0,0,1.68.67,1.75,1.75,0,0,0,1.51-.78,3.74,3.74,0,0,0,.55-2.15,3.61,3.61,0,0,0-.55-2.14A1.8,1.8,0,0,0,170.43,86Z"/><path class="cls-1" d="M178.8,92.78a3.4,3.4,0,0,1-2.6-1,3.87,3.87,0,0,1-1-2.79,4.33,4.33,0,0,1,.89-2.86,2.93,2.93,0,0,1,2.38-1.06,2.78,2.78,0,0,1,2.21.92,3.49,3.49,0,0,1,.82,2.43v.71h-5.13a2.91,2.91,0,0,0,.66,2,2.27,2.27,0,0,0,1.77.68,6.09,6.09,0,0,0,2.38-.5v1a6,6,0,0,1-1.13.38A6.82,6.82,0,0,1,178.8,92.78ZM178.5,86a1.83,1.83,0,0,0-1.43.59,2.65,2.65,0,0,0-.63,1.61h3.89a2.51,2.51,0,0,0-.47-1.63A1.68,1.68,0,0,0,178.5,86Z"/><path class="cls-1" d="M186.86,85.06a4.74,4.74,0,0,1,.89.08l-.15,1a3.79,3.79,0,0,0-.82-.11,2,2,0,0,0-1.55.74,2.72,2.72,0,0,0-.64,1.83v4h-1.13V85.19h.93l.13,1.38h.06a3.22,3.22,0,0,1,1-1.12A2.25,2.25,0,0,1,186.86,85.06Z"/><path class="cls-1" d="M192.33,90.07a2.74,2.74,0,0,1,.47-1.57,5.16,5.16,0,0,1,1.7-1.37,8.11,8.11,0,0,1-.79-1,4.37,4.37,0,0,1-.33-.69,2.36,2.36,0,0,1-.12-.75,2,2,0,0,1,.67-1.59,2.75,2.75,0,0,1,1.85-.57,2.5,2.5,0,0,1,1.74.57,2,2,0,0,1,.63,1.58,2.24,2.24,0,0,1-.46,1.34,5.27,5.27,0,0,1-1.53,1.25l2.76,2.65a3.11,3.11,0,0,0,.61-1,9.36,9.36,0,0,0,.39-1.23h1.14a6.51,6.51,0,0,1-1.4,2.94l2,2h-1.56l-1.26-1.21a5,5,0,0,1-1.63,1,5.17,5.17,0,0,1-1.85.32,3.26,3.26,0,0,1-2.26-.72A2.53,2.53,0,0,1,192.33,90.07Zm3.1,1.69a3.74,3.74,0,0,0,2.72-1l-3-2.88a7.14,7.14,0,0,0-1.07.76,2,2,0,0,0-.46.65,2,2,0,0,0-.15.79A1.6,1.6,0,0,0,194,91.3,2,2,0,0,0,195.43,91.76Zm-1.05-7.08a1.78,1.78,0,0,0,.24.9,5.26,5.26,0,0,0,.84,1,4.48,4.48,0,0,0,1.22-.94,1.55,1.55,0,0,0,.34-1,1.14,1.14,0,0,0-.35-.85,1.29,1.29,0,0,0-.93-.33,1.46,1.46,0,0,0-1,.33A1.08,1.08,0,0,0,194.38,84.68Z"/><path class="cls-1" d="M211.6,91.64h-.06a2.65,2.65,0,0,1-2.34,1.14,2.78,2.78,0,0,1-2.27-1,4.41,4.41,0,0,1-.81-2.84,4.49,4.49,0,0,1,.81-2.86,2.75,2.75,0,0,1,2.27-1,2.7,2.7,0,0,1,2.33,1.1h.09l-.05-.54,0-.52v-3h1.13V92.64h-.92Zm-2.25.19A2,2,0,0,0,211,91.2a3.12,3.12,0,0,0,.52-2v-.24a3.66,3.66,0,0,0-.53-2.26,2,2,0,0,0-1.68-.68,1.75,1.75,0,0,0-1.52.77,3.86,3.86,0,0,0-.52,2.18,3.7,3.7,0,0,0,.52,2.16A1.78,1.78,0,0,0,209.35,91.83Z"/><path class="cls-1" d="M218.21,92.78a3.44,3.44,0,0,1-2.61-1,3.87,3.87,0,0,1-.95-2.79,4.33,4.33,0,0,1,.88-2.86,3,3,0,0,1,2.39-1.06,2.78,2.78,0,0,1,2.21.92,3.54,3.54,0,0,1,.82,2.43v.71h-5.13a2.91,2.91,0,0,0,.66,2,2.27,2.27,0,0,0,1.77.68,6.12,6.12,0,0,0,2.38-.5v1a6,6,0,0,1-1.13.38A6.82,6.82,0,0,1,218.21,92.78ZM217.9,86a1.85,1.85,0,0,0-1.43.59,2.77,2.77,0,0,0-.63,1.61h3.9a2.46,2.46,0,0,0-.48-1.63A1.68,1.68,0,0,0,217.9,86Z"/><path class="cls-1" d="M227.67,90.61a1.84,1.84,0,0,1-.77,1.6,3.62,3.62,0,0,1-2.18.57,4.8,4.8,0,0,1-2.31-.47v-1a5.54,5.54,0,0,0,1.16.43,5,5,0,0,0,1.18.16,2.67,2.67,0,0,0,1.36-.29.92.92,0,0,0,.48-.86,1,1,0,0,0-.38-.74,5.72,5.72,0,0,0-1.47-.73,7.35,7.35,0,0,1-1.48-.68,2,2,0,0,1-.65-.65,1.67,1.67,0,0,1-.22-.88,1.69,1.69,0,0,1,.74-1.44,3.5,3.5,0,0,1,2-.52,5.9,5.9,0,0,1,2.35.49l-.4.91a5.59,5.59,0,0,0-2-.46,2.45,2.45,0,0,0-1.21.25.78.78,0,0,0-.4.7.85.85,0,0,0,.15.51,1.59,1.59,0,0,0,.49.4,12.29,12.29,0,0,0,1.31.55,4.82,4.82,0,0,1,1.79,1A1.72,1.72,0,0,1,227.67,90.61Z"/><path class="cls-1" d="M229.41,83.18a.78.78,0,0,1,.19-.57.68.68,0,0,1,.48-.18.67.67,0,0,1,.47.18.74.74,0,0,1,.2.57.73.73,0,0,1-.2.56.64.64,0,0,1-.47.19.65.65,0,0,1-.48-.19A.77.77,0,0,1,229.41,83.18Zm1.23,9.46h-1.13V85.19h1.13Z"/><path class="cls-1" d="M239.12,85.19v.72l-1.38.16a2.41,2.41,0,0,1,.49,1.49,2.24,2.24,0,0,1-.74,1.75,3.51,3.51,0,0,1-2.68.59,1.13,1.13,0,0,0-.72,1,.47.47,0,0,0,.25.45,1.81,1.81,0,0,0,.86.15h1.32a2.94,2.94,0,0,1,1.86.51,1.77,1.77,0,0,1,.65,1.48,2.14,2.14,0,0,1-1,1.89,5.38,5.38,0,0,1-2.9.64,4,4,0,0,1-2.25-.54,1.74,1.74,0,0,1-.79-1.53,1.72,1.72,0,0,1,.43-1.18,2.17,2.17,0,0,1,1.23-.67,1.23,1.23,0,0,1-.48-.4,1.08,1.08,0,0,1-.2-.64,1.15,1.15,0,0,1,.22-.71,2.33,2.33,0,0,1,.69-.59,2,2,0,0,1-.94-.81,2.3,2.3,0,0,1-.37-1.3,2.41,2.41,0,0,1,.74-1.89,3,3,0,0,1,2.08-.66,3.82,3.82,0,0,1,1.05.13Zm-5.94,8.7a1,1,0,0,0,.51.92,2.82,2.82,0,0,0,1.47.31,4.13,4.13,0,0,0,2.1-.42,1.32,1.32,0,0,0,.68-1.16.89.89,0,0,0-.37-.83,2.86,2.86,0,0,0-1.41-.24h-1.35a1.78,1.78,0,0,0-1.2.37A1.31,1.31,0,0,0,233.18,93.89Zm.62-6.31a1.5,1.5,0,0,0,.44,1.18,1.74,1.74,0,0,0,1.23.4,1.44,1.44,0,0,0,1.65-1.6,1.48,1.48,0,0,0-1.67-1.68,1.66,1.66,0,0,0-1.23.43A1.74,1.74,0,0,0,233.8,87.58Z"/><path class="cls-1" d="M245.75,92.64V87.82a1.94,1.94,0,0,0-.42-1.36A1.69,1.69,0,0,0,244,86a2.17,2.17,0,0,0-1.72.63,3.18,3.18,0,0,0-.54,2.08v3.91h-1.13V85.19h.92l.18,1h.06a2.3,2.3,0,0,1,1-.85,3.18,3.18,0,0,1,1.39-.3,2.82,2.82,0,0,1,2,.65,2.76,2.76,0,0,1,.68,2.07v4.86Z"/><path class="cls-1" d="M252.34,92.78a3.44,3.44,0,0,1-2.61-1,3.91,3.91,0,0,1-.95-2.79,4.28,4.28,0,0,1,.89-2.86,2.93,2.93,0,0,1,2.38-1.06,2.78,2.78,0,0,1,2.21.92,3.49,3.49,0,0,1,.82,2.43v.71H250a2.91,2.91,0,0,0,.66,2,2.27,2.27,0,0,0,1.77.68,6.09,6.09,0,0,0,2.38-.5v1a6,6,0,0,1-1.13.38A6.82,6.82,0,0,1,252.34,92.78ZM252,86a1.86,1.86,0,0,0-1.43.59A2.7,2.7,0,0,0,250,88.2h3.89a2.46,2.46,0,0,0-.48-1.63A1.66,1.66,0,0,0,252,86Z"/><path class="cls-1" d="M260.4,85.06a4.74,4.74,0,0,1,.89.08l-.16,1a3.71,3.71,0,0,0-.81-.11,2,2,0,0,0-1.55.74,2.67,2.67,0,0,0-.64,1.83v4H257V85.19h.93l.13,1.38h.06a3.22,3.22,0,0,1,1-1.12A2.22,2.22,0,0,1,260.4,85.06Z"/><path class="cls-1" d="M262.52,91.92a1,1,0,0,1,.21-.69.75.75,0,0,1,.59-.23.85.85,0,0,1,.62.23,1,1,0,0,1,.22.69,1,1,0,0,1-.23.68.79.79,0,0,1-.61.24.77.77,0,0,1-.57-.22A.92.92,0,0,1,262.52,91.92Z"/></g></g></svg>