<svg xmlns="http://www.w3.org/2000/svg" viewBox="0 0 340.41 99.42"><defs><style>.cls-1{fill:#fff;}</style></defs><title>name_1</title><g id="Layer_2" data-name="Layer 2"><g id="Layer_1-2" data-name="Layer 1"><path class="cls-1" d="M3.49,52.85a23.94,23.94,0,0,1,8.89-1.3,67,67,0,0,0,3.89-11.3q1.8-6.84,4.47-18.72.29-1.23,1.62-7.2a84.16,84.16,0,0,1,2.41-9.07,88.63,88.63,0,0,0-9,.5Q12,6.2,7.7,7A6.93,6.93,0,0,1,12.2,1.8Q16,.22,23.69.22A167.63,167.63,0,0,1,44.57,1.8a11.23,11.23,0,0,1-4.21,2.74,13.75,13.75,0,0,1-4.14.64q-5.47,0-7.78.08L28,7.42l-1.8,10q-1.08,6.2-2.34,12.82t-2.13,9.94q-2.16,8.64-5.18,11.52c2.4.19,4.22.36,5.47.5q6.63.72,10.8.79a13.71,13.71,0,0,1-9.72,4q-10,0-13.93.22A84.81,84.81,0,0,0,0,58.32C.24,55.54,1.4,53.71,3.49,52.85Z"/><path class="cls-1" d="M48.53,9.5a2.35,2.35,0,0,1-.72-1.58,3.21,3.21,0,0,1,.61-1.73,25.65,25.65,0,0,1,1.91-2.45A15,15,0,0,0,52.85,0a2.72,2.72,0,0,1,1.87.79,2.35,2.35,0,0,1,.86,1.73,5.41,5.41,0,0,1-.9,2.27,43.46,43.46,0,0,1-2.55,3.56c-1.2,1.59-1.83,2.43-1.88,2.52A6.88,6.88,0,0,1,48.53,9.5Z"/><path class="cls-1" d="M82.15,52.63a5.75,5.75,0,0,1-1.44-4A11.84,11.84,0,0,1,81,46a24.65,24.65,0,0,1,.76-2.62,16.53,16.53,0,0,0,.94-4.32c0-1.44-.56-2.16-1.66-2.16s-2.28.77-3.67,2.3a72.07,72.07,0,0,0-5.62,7.56c-.57.86-1.44,2.33-2.59,4.39l-1.37,2.45a9.12,9.12,0,0,1-2.81-.5c-1-.34-1.51-.8-1.51-1.37A23.37,23.37,0,0,1,65,47.16c1-2.49,1.74-4.68,2.34-6.55a15.92,15.92,0,0,0,.9-4.68c0-1.44-.5-2.16-1.51-2.16q-1.93,0-5,3.06a45.74,45.74,0,0,0-6.12,7.77,47.34,47.34,0,0,0-4.68,9.33,8.35,8.35,0,0,1-3.06-.72c-1.17-.48-1.76-.89-1.76-1.23l4.61-18.43c.14-.53.66-1,1.54-1.4a5.86,5.86,0,0,1,2.42-.61,2.46,2.46,0,0,1,1.76.64,2.27,2.27,0,0,1,.68,1.73,29.09,29.09,0,0,1-1,5.19,45.54,45.54,0,0,1,7.12-7.89q3.67-3.13,6.92-3.13a3.76,3.76,0,0,1,3.49,1.73,8.27,8.27,0,0,1,1,4.32,10.89,10.89,0,0,1-.28,2.55c-.2.8-.51,1.86-.94,3.21q5-7.41,10.44-7.42A4.46,4.46,0,0,1,87.66,34a6.16,6.16,0,0,1,1.19,3.85,21.55,21.55,0,0,1-1.44,6.48c0,.19-.23.82-.54,1.87a9.32,9.32,0,0,0-.47,2.6c0,1.29.6,1.94,1.8,1.94q2.6,0,5.07-3.31a45,45,0,0,0,4.65-7.92L99.14,41a32.44,32.44,0,0,1-5.36,9.29c-2.19,2.59-4.69,3.89-7.53,3.89A5.25,5.25,0,0,1,82.15,52.63Z"/><path class="cls-1" d="M123.48,56.77a13.82,13.82,0,0,1-6-4.46,11.46,11.46,0,0,1-2.3-7.24q0-5.32,3.31-7.67a13.11,13.11,0,0,1,7.77-2.34,18,18,0,0,0-3.49,5,12.11,12.11,0,0,0-1.19,5,8.69,8.69,0,0,0,3,6.63q3,2.73,8.32,2.73a18.75,18.75,0,0,0,6.44-1.11,11.66,11.66,0,0,0,5-3.35,8.19,8.19,0,0,0,.39-10,15.09,15.09,0,0,0-3.7-3.6A68.7,68.7,0,0,0,135,32.83q-4-2.16-6.41-3.81a15.41,15.41,0,0,1-4.1-4.07,9.59,9.59,0,0,1-1.66-5.58,17.16,17.16,0,0,1,2.66-8.64A22,22,0,0,1,133,3.17a19.91,19.91,0,0,1,10.8-3q9,0,9,7.56A22.78,22.78,0,0,1,151,15.88a44.67,44.67,0,0,1-4,7.95q-3.17-.64-3.17-3.67a10.88,10.88,0,0,1,.54-3.13c.36-1.18.88-2.58,1.55-4.21.67-1.83,1.18-3.27,1.51-4.32A9.52,9.52,0,0,0,148,5.62a2.54,2.54,0,0,0-.83-2.06,4.88,4.88,0,0,0-3-.68,13.8,13.8,0,0,0-7.92,2.45,19.13,19.13,0,0,0-5.72,5.94,12.59,12.59,0,0,0-2.13,6.44,6.29,6.29,0,0,0,1.3,3.89,12.13,12.13,0,0,0,3.28,3q2,1.26,5.36,3.06,4.24,2.31,6.8,4a16.09,16.09,0,0,1,4.39,4.46,11.46,11.46,0,0,1,1.84,6.56A12.84,12.84,0,0,1,148.5,51a18.21,18.21,0,0,1-7.42,5.4,24.9,24.9,0,0,1-9.47,1.87A21.81,21.81,0,0,1,123.48,56.77Z"/><path class="cls-1" d="M156.13,52.34a8.29,8.29,0,0,1-1.33-4.82,17.21,17.21,0,0,1,1.26-6.26,16.71,16.71,0,0,1,3.27-5.4,5.73,5.73,0,0,1,4.11-2.16,6.16,6.16,0,0,1,2.23.57A10,10,0,0,1,168,28.8a6.78,6.78,0,0,1,5.36-2.16,5.26,5.26,0,0,1,4.25,1.62A6.31,6.31,0,0,1,179,32.47a15.57,15.57,0,0,1-1.33,5.76,40.53,40.53,0,0,1-3.42,6.48,4.38,4.38,0,0,0,2,.43,8.65,8.65,0,0,0,4.32-1.33,8.55,8.55,0,0,0,3.53-4.07l1.3.94a12.3,12.3,0,0,1-4.07,5.26,9.09,9.09,0,0,1-5.29,1.8,11.45,11.45,0,0,1-3.6-.65,25.47,25.47,0,0,1-5.84,5.18,11.46,11.46,0,0,1-6.19,2A4.81,4.81,0,0,1,156.13,52.34Zm10-3.16a24.33,24.33,0,0,0,3.75-3.68q-4.11-3.6-4.32-10.58a6.6,6.6,0,0,0-2.09,2.66,27.79,27.79,0,0,0-2.09,5,16,16,0,0,0-.86,4.75c0,2.21.81,3.32,2.44,3.32A5.63,5.63,0,0,0,166.17,49.18Zm8.61-11.52A13.81,13.81,0,0,0,176,32.47c0-2.11-.67-3.17-2-3.17a3,3,0,0,0-1.95.94,7.08,7.08,0,0,0-1.65,2.48,8.87,8.87,0,0,0-.65,3.42,14.33,14.33,0,0,0,.58,3.78,8.72,8.72,0,0,0,1.51,3.28A31.64,31.64,0,0,0,174.78,37.66Z"/><path class="cls-1" d="M184,51.91a8.82,8.82,0,0,1-1.59-5.25,24,24,0,0,1,1.15-6.48,35.87,35.87,0,0,1,2.7-6.77q1.56-2.88,2.7-2.88a3.87,3.87,0,0,1,1.55.54,7.28,7.28,0,0,1,1.84,1.33,33.28,33.28,0,0,0-3.13,6.41,20.44,20.44,0,0,0-1.62,7.2,11.08,11.08,0,0,0,.39,2.84,1.73,1.73,0,0,0,1.77,1.48q2.66,0,6.37-5.94a93.19,93.19,0,0,0,6.37-12.06c2.88.48,4.32,1.29,4.32,2.45a19.93,19.93,0,0,1-.86,2.08c-1,2.36-1.88,4.54-2.6,6.56a16,16,0,0,0-1.08,5.25q0,2.52,1.95,2.52a7,7,0,0,0,3.63-1.4,21.45,21.45,0,0,0,4.36-4,28.34,28.34,0,0,0,3.89-6.09l1.08.87a27.38,27.38,0,0,1-4.11,7,21.28,21.28,0,0,1-5.43,4.86A10.81,10.81,0,0,1,202,54.14q-3.17,0-4.07-2.19a15.8,15.8,0,0,1-.9-5.87,36.92,36.92,0,0,1-4.61,5.9,6.4,6.4,0,0,1-4.53,2.16A4.69,4.69,0,0,1,184,51.91Z"/><path class="cls-1" d="M223.2,52.45a4.67,4.67,0,0,1-1.66-3.78,9.53,9.53,0,0,1,.54-3,37.84,37.84,0,0,1,1.62-3.92q.93-2,1.44-3.42a7.62,7.62,0,0,0,.5-2.48c0-1.83-1.2-3.36-3.6-4.61q-1.44,3.6-3.34,7.27t-3.42,6.19l-1.08-2.09a84,84,0,0,0,5.83-13,2.63,2.63,0,0,1-.72-1.94,6.07,6.07,0,0,1,1.15-3.53c.77-1.1,1.51-1.66,2.23-1.66a1.37,1.37,0,0,1,1.19.87,3.19,3.19,0,0,1,.47,1.44A5.41,5.41,0,0,1,224,26c-.21.65-.37,1.11-.46,1.4a1.58,1.58,0,0,0,.57,1A14.06,14.06,0,0,0,226,29.74a20.64,20.64,0,0,1,3.93,3.2,6,6,0,0,1,1.4,4.14,9.78,9.78,0,0,1-.54,3.17,34.74,34.74,0,0,1-1.62,3.81,12.39,12.39,0,0,0-1.58,4.54c0,1.11.6,1.66,1.8,1.66a8.59,8.59,0,0,0,4.71-1.73,23.18,23.18,0,0,0,4.68-4.21,21.37,21.37,0,0,0,3.14-4.65l1.72,1.3a24.4,24.4,0,0,1-4,6.19A23.31,23.31,0,0,1,233.82,52a12.45,12.45,0,0,1-6.3,1.88A6.42,6.42,0,0,1,223.2,52.45Z"/><path class="cls-1" d="M240.15,53.71A6.23,6.23,0,0,1,238.46,49q0-4.17,3.06-9.36a30.14,30.14,0,0,1,7.81-8.78,15.72,15.72,0,0,1,9.5-3.6,8.49,8.49,0,0,1,5.3,1.62,5,5,0,0,1,2.12,4.14q0,3.31-4.1,3.45c1.73.53,2.59,1.25,2.59,2.16a4,4,0,0,1-.5,1.52c-.34.67-.73,1.36-1.16,2.08a31.12,31.12,0,0,0-1.8,3.28,6.34,6.34,0,0,0-.65,2.63,3.12,3.12,0,0,0,.54,1.83,1.87,1.87,0,0,0,1.62.76q2,0,5.15-2.81A30.07,30.07,0,0,0,274,39.53l1.37,1.37a28.84,28.84,0,0,1-6.63,9.61q-4,3.63-8,3.63a5.38,5.38,0,0,1-4.43-1.9,6.77,6.77,0,0,1-1.55-4.36,39.92,39.92,0,0,1-5.54,5.69,7.84,7.84,0,0,1-4.9,1.8A5.76,5.76,0,0,1,240.15,53.71Zm11.59-5.65a107.83,107.83,0,0,0,7.6-9.47l1.44-1.94a.64.64,0,0,1,.58-.36l.28.07A9,9,0,0,0,262,33.7c0-2.5-1-3.75-3-3.75s-4.32,1.13-6.62,3.39a29.62,29.62,0,0,0-5.8,8.06,18.63,18.63,0,0,0-2.34,8,3,3,0,0,0,.4,1.77,1.45,1.45,0,0,0,1.26.54C247.55,51.7,249.51,50.48,251.74,48.06Z"/><path class="cls-1" d="M273.67,54.72q-2.16-2.52-2.16-7.06,0-6.76,4.32-18.1A114,114,0,0,1,285.69,9.4Q291.24.58,294.4.58a2.34,2.34,0,0,1,2.13,1.51,8.27,8.27,0,0,1,.82,3.45q0,3.46-2.37,9a50.81,50.81,0,0,1-6.23,10.69,27.82,27.82,0,0,1-8.1,7.56A30,30,0,0,0,278.53,39a32.35,32.35,0,0,0-1.12,8.24,12,12,0,0,0,.9,5.08,3,3,0,0,0,2.84,1.91,6.73,6.73,0,0,0,4-1.7,13.25,13.25,0,0,0,3.52-4.21,10,10,0,0,1-4-4,11.24,11.24,0,0,1-1.41-5.51,8.38,8.38,0,0,1,1.88-5.65,5.86,5.86,0,0,1,4.68-2.2,4.66,4.66,0,0,1,3.88,1.84,8.54,8.54,0,0,1,1.44,5.36A21.57,21.57,0,0,1,293,47.23l1.3.07A7.15,7.15,0,0,0,299.8,45a23.26,23.26,0,0,0,3.82-5.69l1.08,1.51a17,17,0,0,1-4.57,6.59,10.38,10.38,0,0,1-6.74,2.13,11,11,0,0,1-1.51-.08,19.64,19.64,0,0,1-5.25,5.66,11.57,11.57,0,0,1-6.77,2.12A7.7,7.7,0,0,1,273.67,54.72Zm14-33.37a59.56,59.56,0,0,0,4.46-8.28A19.28,19.28,0,0,0,294,7.34q-.93.36-3.24,3.6a67.14,67.14,0,0,0-4.75,8,61.62,61.62,0,0,0-4,9.4A34,34,0,0,0,287.71,21.35Zm3.52,18.47a9.7,9.7,0,0,0-.57-3.75c-.39-.86-.89-1.29-1.51-1.29s-1.17.43-1.62,1.29a6.54,6.54,0,0,0-.69,3.1,9.93,9.93,0,0,0,.76,3.71,6.75,6.75,0,0,0,2.34,3.06A15.14,15.14,0,0,0,291.23,39.82Z"/><path class="cls-1" d="M302.83,52.42a19.6,19.6,0,0,1-.72-5.84q0-6.48,4.06-17.6A111.23,111.23,0,0,1,315.5,9.22Q320.75.58,324.07.58a2.52,2.52,0,0,1,2.26,1.58,7.53,7.53,0,0,1,.83,3.53q0,3.32-2.41,8.85a51.66,51.66,0,0,1-6.34,10.7,28.71,28.71,0,0,1-8.1,7.59,34.71,34.71,0,0,0-2.44,12.24l.07,1.51a12.73,12.73,0,0,0,.64-1.58,63.77,63.77,0,0,1,3-6.77A21.73,21.73,0,0,1,316,32.58,9.1,9.1,0,0,1,322.41,30a5.49,5.49,0,0,1,4.82,2.13,8.37,8.37,0,0,1,1.52,5,10.65,10.65,0,0,1-.44,3.1c-.28,1-.72,2.18-1.29,3.67-.1.19-.28.64-.54,1.33a12.88,12.88,0,0,0-.58,1.87,7.07,7.07,0,0,0-.18,1.48c0,1.54.65,2.3,1.95,2.3a6.76,6.76,0,0,0,3.74-1.58A22.43,22.43,0,0,0,335.66,45a32.4,32.4,0,0,0,3.6-5.76l1.15,1.22A30.76,30.76,0,0,1,334,50a11.45,11.45,0,0,1-8.09,3.67,5.78,5.78,0,0,1-4.14-1.4,4.79,4.79,0,0,1-1.48-3.64,23.53,23.53,0,0,1,1-5.18,20.11,20.11,0,0,0,1.08-5.26c0-2-.87-3-2.59-3a5.13,5.13,0,0,0-4.36,2.7,53.23,53.23,0,0,0-4,8,45.49,45.49,0,0,1-3.16,6.66c-.92,1.47-2,2.2-3.17,2.2C304.05,54.72,303.3,54,302.83,52.42Zm14.68-31.11A56.71,56.71,0,0,0,322,13.07a17.22,17.22,0,0,0,1.73-5.73q-.87.36-3.1,3.5a65.33,65.33,0,0,0-4.68,7.84,70.47,70.47,0,0,0-4.1,9.54A33.88,33.88,0,0,0,317.51,21.31Z"/><path class="cls-1" d="M56.93,95l-.29-1.4h-.07a4.09,4.09,0,0,1-1.47,1.25,4.42,4.42,0,0,1-1.82.33A3.27,3.27,0,0,1,51,94.44a2.76,2.76,0,0,1-.83-2.14q0-3,4.76-3.12l1.66-.06v-.61a2.47,2.47,0,0,0-.49-1.7,2,2,0,0,0-1.59-.55,6.49,6.49,0,0,0-2.78.75l-.46-1.14a7.4,7.4,0,0,1,1.59-.62A6.92,6.92,0,0,1,54.59,85a3.72,3.72,0,0,1,2.6.78,3.27,3.27,0,0,1,.85,2.5V95ZM53.57,94a3,3,0,0,0,2.19-.76,2.85,2.85,0,0,0,.79-2.13v-.89l-1.49.06a5.63,5.63,0,0,0-2.56.55,1.68,1.68,0,0,0-.78,1.52,1.52,1.52,0,0,0,.49,1.23A2,2,0,0,0,53.57,94Z"/><path class="cls-1" d="M73.89,95l-1.8-5.76c-.12-.35-.33-1.15-.64-2.4h-.07c-.24,1-.45,1.85-.63,2.42L68.9,95H67.18L64.5,85.19h1.56l1.44,5.64a24.21,24.21,0,0,1,.57,2.6h.07c.07-.34.18-.78.32-1.32s.28-1,.38-1.28l1.8-5.64h1.62L74,90.83a16.77,16.77,0,0,1,.68,2.59h.08a7.36,7.36,0,0,1,.19-1c.1-.45.73-2.86,1.87-7.23h1.54L75.65,95Z"/><path class="cls-1" d="M84.29,95.19a4.5,4.5,0,0,1-3.44-1.33,5.16,5.16,0,0,1-1.25-3.68,5.69,5.69,0,0,1,1.17-3.77A3.87,3.87,0,0,1,83.91,85a3.73,3.73,0,0,1,2.92,1.21,4.7,4.7,0,0,1,1.07,3.21v.94H81.14A3.88,3.88,0,0,0,82,93a3,3,0,0,0,2.33.9,7.94,7.94,0,0,0,3.14-.66v1.32A7.61,7.61,0,0,1,86,95,8.32,8.32,0,0,1,84.29,95.19Zm-.4-8.93A2.42,2.42,0,0,0,82,87a3.56,3.56,0,0,0-.83,2.13h5.14A3.27,3.27,0,0,0,85.68,87,2.22,2.22,0,0,0,83.89,86.26Z"/><path class="cls-1" d="M95,85a3.64,3.64,0,0,1,3,1.32,5.77,5.77,0,0,1,1.08,3.74A5.85,5.85,0,0,1,98,93.85a3.65,3.65,0,0,1-3,1.34,4.34,4.34,0,0,1-1.75-.35,3.26,3.26,0,0,1-1.33-1.09h-.11L91.5,95H90.44V81.07h1.49v3.39c0,.75,0,1.43-.08,2h.08A3.53,3.53,0,0,1,95,85Zm-.22,1.24a2.61,2.61,0,0,0-2.19.88,6.74,6.74,0,0,0,0,5.9,2.6,2.6,0,0,0,2.21.89,2.3,2.3,0,0,0,2-1,5.15,5.15,0,0,0,.67-2.88,4.93,4.93,0,0,0-.67-2.86A2.4,2.4,0,0,0,94.79,86.27Z"/><path class="cls-1" d="M113.14,93.69h-.09a3.48,3.48,0,0,1-3.08,1.5,3.63,3.63,0,0,1-3-1.32,5.75,5.75,0,0,1-1.08-3.74A5.91,5.91,0,0,1,107,86.35,3.63,3.63,0,0,1,110,85,3.58,3.58,0,0,1,113,86.46h.11l-.06-.71,0-.69v-4h1.49V95h-1.21Zm-3,.25a2.71,2.71,0,0,0,2.21-.82,4.2,4.2,0,0,0,.68-2.68v-.31a5,5,0,0,0-.69-3,2.62,2.62,0,0,0-2.22-.89,2.28,2.28,0,0,0-2,1,5.11,5.11,0,0,0-.69,2.88,4.86,4.86,0,0,0,.69,2.84A2.32,2.32,0,0,0,110.16,93.94Z"/><path class="cls-1" d="M121.84,95.19a4.48,4.48,0,0,1-3.43-1.33,5.12,5.12,0,0,1-1.26-3.68,5.69,5.69,0,0,1,1.17-3.77,3.9,3.9,0,0,1,3.14-1.4,3.73,3.73,0,0,1,2.92,1.21,4.65,4.65,0,0,1,1.08,3.21v.94h-6.77a3.88,3.88,0,0,0,.87,2.62,3,3,0,0,0,2.34.9,8,8,0,0,0,3.14-.66v1.32a7.91,7.91,0,0,1-1.5.49A8.25,8.25,0,0,1,121.84,95.19Zm-.4-8.93a2.38,2.38,0,0,0-1.88.77,3.5,3.5,0,0,0-.83,2.13h5.13a3.27,3.27,0,0,0-.63-2.16A2.21,2.21,0,0,0,121.44,86.26Z"/><path class="cls-1" d="M130.14,95l-3.72-9.82H128L130.13,91c.47,1.37.75,2.25.84,2.66H131a17.54,17.54,0,0,1,.62-2q.53-1.49,2.35-6.51h1.6L131.88,95Z"/><path class="cls-1" d="M141.33,95.19a4.48,4.48,0,0,1-3.43-1.33,5.12,5.12,0,0,1-1.26-3.68,5.69,5.69,0,0,1,1.17-3.77A3.88,3.88,0,0,1,141,85a3.73,3.73,0,0,1,2.92,1.21A4.65,4.65,0,0,1,145,89.43v.94h-6.77a3.88,3.88,0,0,0,.87,2.62,3,3,0,0,0,2.34.9,7.89,7.89,0,0,0,3.13-.66v1.32A7.61,7.61,0,0,1,143,95,8.25,8.25,0,0,1,141.33,95.19Zm-.4-8.93A2.42,2.42,0,0,0,139,87a3.56,3.56,0,0,0-.82,2.13h5.13a3.27,3.27,0,0,0-.63-2.16A2.22,2.22,0,0,0,140.93,86.26Z"/><path class="cls-1" d="M149,95h-1.49V81.07H149Z"/><path class="cls-1" d="M160.6,90.09a5.4,5.4,0,0,1-1.21,3.75,4.26,4.26,0,0,1-3.34,1.35,4.45,4.45,0,0,1-2.34-.62,4.07,4.07,0,0,1-1.58-1.77,6.18,6.18,0,0,1-.55-2.71,5.4,5.4,0,0,1,1.2-3.74A4.25,4.25,0,0,1,156.11,85a4.18,4.18,0,0,1,3.28,1.37A5.4,5.4,0,0,1,160.6,90.09Zm-7.48,0a4.68,4.68,0,0,0,.75,2.87,3,3,0,0,0,4.43,0,4.59,4.59,0,0,0,.76-2.87,4.49,4.49,0,0,0-.76-2.84,3,3,0,0,0-4.44,0A4.67,4.67,0,0,0,153.12,90.09Z"/><path class="cls-1" d="M167.78,95.19a4.31,4.31,0,0,1-1.75-.35,3.26,3.26,0,0,1-1.33-1.09h-.11a13.39,13.39,0,0,1,.11,1.63v4h-1.49V85.19h1.21l.2,1.34h.08A3.47,3.47,0,0,1,166,85.37a4.05,4.05,0,0,1,1.75-.36,3.63,3.63,0,0,1,3,1.34,7.08,7.08,0,0,1,0,7.5A3.65,3.65,0,0,1,167.78,95.19Zm-.22-8.92a2.6,2.6,0,0,0-2.17.84,4.25,4.25,0,0,0-.69,2.65v.33a4.9,4.9,0,0,0,.69,3,2.6,2.6,0,0,0,2.21.89,2.28,2.28,0,0,0,2-1,4.87,4.87,0,0,0,.72-2.84,4.74,4.74,0,0,0-.72-2.82A2.38,2.38,0,0,0,167.56,86.27Z"/><path class="cls-1" d="M178.6,95.19a4.47,4.47,0,0,1-3.43-1.33,5.12,5.12,0,0,1-1.26-3.68,5.69,5.69,0,0,1,1.17-3.77,3.88,3.88,0,0,1,3.14-1.4,3.73,3.73,0,0,1,2.92,1.21,4.7,4.7,0,0,1,1.07,3.21v.94h-6.76a3.88,3.88,0,0,0,.87,2.62,3,3,0,0,0,2.34.9,7.93,7.93,0,0,0,3.13-.66v1.32a7.61,7.61,0,0,1-1.49.49A8.32,8.32,0,0,1,178.6,95.19Zm-.4-8.93a2.42,2.42,0,0,0-1.89.77,3.56,3.56,0,0,0-.83,2.13h5.14A3.27,3.27,0,0,0,180,87,2.22,2.22,0,0,0,178.2,86.26Z"/><path class="cls-1" d="M189.23,85a5.82,5.82,0,0,1,1.17.11l-.2,1.38a5.16,5.16,0,0,0-1.08-.14,2.65,2.65,0,0,0-2,1,3.56,3.56,0,0,0-.84,2.41V95h-1.49V85.19H186l.17,1.82h.07a4.25,4.25,0,0,1,1.32-1.48A2.91,2.91,0,0,1,189.23,85Z"/><path class="cls-1" d="M196.44,91.61a3.51,3.51,0,0,1,.63-2.06,6.82,6.82,0,0,1,2.23-1.81,9.19,9.19,0,0,1-1-1.29,4,4,0,0,1-.44-.91,3,3,0,0,1-.16-1,2.59,2.59,0,0,1,.88-2.09A3.65,3.65,0,0,1,201,81.7a3.3,3.3,0,0,1,2.28.75,2.66,2.66,0,0,1,.83,2.09,2.9,2.9,0,0,1-.61,1.77,6.84,6.84,0,0,1-2,1.64l3.64,3.5a4.2,4.2,0,0,0,.81-1.3,10.2,10.2,0,0,0,.5-1.64H208a8.56,8.56,0,0,1-1.84,3.89L208.79,95h-2l-1.66-1.59a6.35,6.35,0,0,1-4.59,1.77,4.36,4.36,0,0,1-3-1A3.37,3.37,0,0,1,196.44,91.61Zm4.09,2.24a4.93,4.93,0,0,0,3.58-1.38l-3.91-3.79a8.69,8.69,0,0,0-1.41,1,2.72,2.72,0,0,0-.61.86,2.61,2.61,0,0,0-.2,1,2.11,2.11,0,0,0,.7,1.66A2.68,2.68,0,0,0,200.53,93.85Zm-1.39-9.33a2.41,2.41,0,0,0,.32,1.18A7.35,7.35,0,0,0,200.57,87a5.6,5.6,0,0,0,1.6-1.24,2,2,0,0,0,.46-1.31,1.49,1.49,0,0,0-.46-1.12,1.74,1.74,0,0,0-1.24-.44,1.93,1.93,0,0,0-1.29.43A1.46,1.46,0,0,0,199.14,84.52Z"/><path class="cls-1" d="M221.86,93.69h-.09a3.48,3.48,0,0,1-3.08,1.5,3.63,3.63,0,0,1-3-1.32,5.75,5.75,0,0,1-1.08-3.74,5.91,5.91,0,0,1,1.08-3.78,3.63,3.63,0,0,1,3-1.34,3.58,3.58,0,0,1,3.07,1.45h.11l-.06-.71,0-.69v-4h1.49V95h-1.21Zm-3,.25a2.71,2.71,0,0,0,2.21-.82,4.2,4.2,0,0,0,.68-2.68v-.31a5,5,0,0,0-.69-3,2.62,2.62,0,0,0-2.22-.89,2.28,2.28,0,0,0-2,1,5.11,5.11,0,0,0-.69,2.88,4.86,4.86,0,0,0,.69,2.84A2.32,2.32,0,0,0,218.88,93.94Z"/><path class="cls-1" d="M230.56,95.19a4.48,4.48,0,0,1-3.43-1.33,5.12,5.12,0,0,1-1.26-3.68A5.69,5.69,0,0,1,227,86.41a3.9,3.9,0,0,1,3.14-1.4,3.73,3.73,0,0,1,2.92,1.21,4.65,4.65,0,0,1,1.08,3.21v.94h-6.77a3.88,3.88,0,0,0,.87,2.62,3,3,0,0,0,2.34.9,7.89,7.89,0,0,0,3.13-.66v1.32a7.61,7.61,0,0,1-1.49.49A8.25,8.25,0,0,1,230.56,95.19Zm-.4-8.93a2.38,2.38,0,0,0-1.88.77,3.5,3.5,0,0,0-.83,2.13h5.13A3.27,3.27,0,0,0,232,87,2.21,2.21,0,0,0,230.16,86.26Z"/><path class="cls-1" d="M243.05,92.33a2.47,2.47,0,0,1-1,2.12,4.87,4.87,0,0,1-2.87.74,6.28,6.28,0,0,1-3-.62V93.19a7.45,7.45,0,0,0,1.52.57,6.68,6.68,0,0,0,1.56.2,3.55,3.55,0,0,0,1.8-.37,1.24,1.24,0,0,0,.62-1.13,1.23,1.23,0,0,0-.49-1,7.67,7.67,0,0,0-1.94-1,9.8,9.8,0,0,1-2-.89,2.52,2.52,0,0,1-.86-.86,2.27,2.27,0,0,1-.29-1.16,2.2,2.2,0,0,1,1-1.89,4.51,4.51,0,0,1,2.68-.7,7.84,7.84,0,0,1,3.1.65l-.53,1.21a7,7,0,0,0-2.68-.61,3.09,3.09,0,0,0-1.59.33,1,1,0,0,0-.54.91,1.13,1.13,0,0,0,.2.67,1.89,1.89,0,0,0,.65.53,14.39,14.39,0,0,0,1.72.73,6.33,6.33,0,0,1,2.36,1.28A2.26,2.26,0,0,1,243.05,92.33Z"/><path class="cls-1" d="M245.34,82.53a1,1,0,0,1,.25-.75.88.88,0,0,1,.63-.24.86.86,0,0,1,.62.25,1,1,0,0,1,.26.74,1,1,0,0,1-.26.75.89.89,0,0,1-.62.24.88.88,0,0,1-.63-.24A1,1,0,0,1,245.34,82.53ZM247,95h-1.48V85.19H247Z"/><path class="cls-1" d="M258.15,85.19v.94l-1.82.22a3.42,3.42,0,0,1,.45.82,3.1,3.1,0,0,1,.19,1.14,2.91,2.91,0,0,1-1,2.3,4,4,0,0,1-2.71.86,4.25,4.25,0,0,1-.82-.07,1.45,1.45,0,0,0-1,1.26.65.65,0,0,0,.33.6,2.41,2.41,0,0,0,1.14.19h1.73a4,4,0,0,1,2.46.67,2.34,2.34,0,0,1,.85,2,2.79,2.79,0,0,1-1.31,2.48,7,7,0,0,1-3.81.86,5.23,5.23,0,0,1-3-.72,2.32,2.32,0,0,1-1-2,2.27,2.27,0,0,1,.57-1.55,3,3,0,0,1,1.62-.89,1.52,1.52,0,0,1-.63-.53,1.41,1.41,0,0,1-.26-.83,1.59,1.59,0,0,1,.29-.94,3,3,0,0,1,.9-.78,2.67,2.67,0,0,1-1.24-1.07,3.11,3.11,0,0,1-.48-1.72,3.19,3.19,0,0,1,1-2.49,4,4,0,0,1,2.74-.87,4.93,4.93,0,0,1,1.39.18Zm-7.84,11.47a1.34,1.34,0,0,0,.68,1.21,3.73,3.73,0,0,0,1.92.41,5.43,5.43,0,0,0,2.78-.56,1.71,1.71,0,0,0,.9-1.52,1.19,1.19,0,0,0-.5-1.1,3.73,3.73,0,0,0-1.85-.31h-1.78a2.35,2.35,0,0,0-1.58.48A1.72,1.72,0,0,0,250.31,96.66Zm.81-8.33a2,2,0,0,0,.58,1.56,2.3,2.3,0,0,0,1.63.53,1.89,1.89,0,0,0,2.17-2.11,2,2,0,0,0-2.2-2.22,2.15,2.15,0,0,0-1.61.57A2.25,2.25,0,0,0,251.12,88.33Z"/><path class="cls-1" d="M266.88,95V88.66a2.57,2.57,0,0,0-.54-1.79,2.23,2.23,0,0,0-1.72-.6,2.79,2.79,0,0,0-2.25.84,4.18,4.18,0,0,0-.72,2.75V95h-1.49V85.19h1.21l.24,1.34h.08A3,3,0,0,1,263,85.41a4.09,4.09,0,0,1,1.83-.4,3.71,3.71,0,0,1,2.67.86,3.62,3.62,0,0,1,.9,2.73V95Z"/><path class="cls-1" d="M275.57,95.19a4.48,4.48,0,0,1-3.43-1.33,5.12,5.12,0,0,1-1.26-3.68,5.69,5.69,0,0,1,1.17-3.77,3.9,3.9,0,0,1,3.14-1.4,3.73,3.73,0,0,1,2.92,1.21,4.65,4.65,0,0,1,1.08,3.21v.94h-6.77a3.88,3.88,0,0,0,.87,2.62,3,3,0,0,0,2.34.9,7.89,7.89,0,0,0,3.13-.66v1.32a7.61,7.61,0,0,1-1.49.49A8.25,8.25,0,0,1,275.57,95.19Zm-.4-8.93a2.38,2.38,0,0,0-1.88.77,3.5,3.5,0,0,0-.83,2.13h5.13A3.27,3.27,0,0,0,277,87,2.22,2.22,0,0,0,275.17,86.26Z"/><path class="cls-1" d="M286.2,85a6,6,0,0,1,1.18.11l-.21,1.38a5.08,5.08,0,0,0-1.08-.14,2.62,2.62,0,0,0-2,1,3.52,3.52,0,0,0-.85,2.41V95h-1.49V85.19H283l.17,1.82h.07a4.35,4.35,0,0,1,1.32-1.48A2.93,2.93,0,0,1,286.2,85Z"/><path class="cls-1" d="M289,94.06a1.35,1.35,0,0,1,.27-.91,1,1,0,0,1,.78-.31,1.11,1.11,0,0,1,.82.31,1.31,1.31,0,0,1,.29.91,1.25,1.25,0,0,1-.3.9,1.18,1.18,0,0,1-1.56,0A1.24,1.24,0,0,1,289,94.06Z"/></g></g></svg>