<svg xmlns="http://www.w3.org/2000/svg" viewBox="0 0 1585.98 555.33"><defs><style>.cls-1{fill:#6e74c8;stroke:#6e74c8;stroke-width:0.83px;}.cls-1,.cls-5{stroke-miterlimit:10;}.cls-2{font-size:134.16px;fill:#fff;font-family:DancingScript-Regular, Dancing Script;}.cls-3{letter-spacing:-0.03em;}.cls-4{fill:#eb708e;}.cls-5{fill:#68b8fe;stroke:#68b8fe;stroke-width:1.65px;}</style></defs><title>work-bg_3</title><g id="Layer_2" data-name="Layer 2"><g id="Layer_1-2" data-name="Layer 1"><rect class="cls-1" x="0.5" y="0.91" width="1584.8" height="554"/><text class="cls-2" transform="translate(633.9 400.55) scale(1.13 1)"><tspan class="cls-3">W</tspan><tspan x="117.39" y="0">ork</tspan></text><path class="cls-4" d="M196.28.83V101.76c0,44.38-23.84,87-62.21,111.16C96.65,236.51,40.83,235.81,0,211.58V220c21.14,11.6,45.72,17.44,69.82,17.44,24.6,0,48.7-6.08,68.13-18.33,40.47-25.51,65.61-70.47,65.61-117.32V.83Z"/><path class="cls-5" d="M1486.77.83V51.42c0,22.24,12,43.59,31.18,55.72,18.76,11.82,46.74,11.47,67.2-.67v4.2a73.42,73.42,0,0,1-35,8.74c-12.32,0-24.4-3-34.15-9.19-20.28-12.78-32.88-35.32-32.88-58.8V.83Z"/></g></g></svg>