<svg xmlns="http://www.w3.org/2000/svg" xmlns:xlink="http://www.w3.org/1999/xlink" viewBox="0 0 1587.89 555.41"><defs><style>.cls-1{fill:#6e74c8;stroke:#6e74c8;stroke-width:0.83px;}.cls-1,.cls-5,.cls-6,.cls-9{stroke-miterlimit:10;}.cls-2{fill:url(#linear-gradient);}.cls-3{fill:url(#linear-gradient-2);}.cls-4{fill:#eb708e;}.cls-5{fill:none;stroke:#070707;stroke-width:2.45px;}.cls-6,.cls-9{fill:#68b8fe;stroke:#68b8fe;}.cls-6{stroke-width:2.03px;}.cls-7{font-size:164.48px;fill:#fff;font-family:DancingScript-Regular, Dancing Script;}.cls-8{letter-spacing:-0.03em;}.cls-9{stroke-width:1.65px;}</style><linearGradient id="linear-gradient" x1="1653.21" y1="537.38" x2="1429.21" y2="347.38" gradientUnits="userSpaceOnUse"><stop offset="0" stop-color="#eb708e"/><stop offset="0.11" stop-color="#e67390"/><stop offset="0.24" stop-color="#d77c98"/><stop offset="0.38" stop-color="#be8ba3"/><stop offset="0.53" stop-color="#9ca0b4"/><stop offset="0.69" stop-color="#70bbc9"/><stop offset="0.85" stop-color="#3adbe3"/><stop offset="1" stop-color="aqua"/></linearGradient><linearGradient id="linear-gradient-2" x1="206.18" y1="451.06" x2="38.18" y2="533.06" xlink:href="#linear-gradient"/></defs><title>work-bg_5</title><g id="Layer_2" data-name="Layer 2"><g id="Layer_1-2" data-name="Layer 1"><rect class="cls-1" x="0.41" y="0.91" width="1584.8" height="554"/><path class="cls-2" d="M1445.12,554.92a171,171,0,0,1,139.8-269.51v270"/><path class="cls-3" d="M1.22,468a105.78,105.78,0,0,1,166.7,86.46H.92"/><circle class="cls-4" cx="999.68" cy="236.49" r="115.24"/><line class="cls-5" x1="642.32" y1="184.39" x2="642.32" y2="447.96"/><line class="cls-5" x1="652.4" y1="185" x2="652.4" y2="448.58"/><line class="cls-5" x1="662.48" y1="185" x2="662.48" y2="448.58"/><line class="cls-5" x1="672.56" y1="185" x2="672.56" y2="448.58"/><line class="cls-5" x1="682.64" y1="185" x2="682.64" y2="448.58"/><line class="cls-5" x1="692.73" y1="185" x2="692.73" y2="448.58"/><line class="cls-5" x1="702.81" y1="184.39" x2="702.81" y2="447.96"/><line class="cls-5" x1="712.89" y1="185" x2="712.89" y2="448.58"/><line class="cls-5" x1="722.97" y1="185" x2="722.97" y2="448.58"/><line class="cls-5" x1="733.06" y1="185" x2="733.06" y2="448.58"/><line class="cls-5" x1="743.14" y1="185" x2="743.14" y2="448.58"/><line class="cls-5" x1="753.22" y1="185" x2="753.22" y2="448.58"/><line class="cls-5" x1="763.3" y1="184.39" x2="763.3" y2="447.96"/><line class="cls-5" x1="773.39" y1="185" x2="773.39" y2="448.58"/><line class="cls-5" x1="783.47" y1="185" x2="783.47" y2="448.58"/><line class="cls-5" x1="793.55" y1="185" x2="793.55" y2="448.58"/><line class="cls-5" x1="803.63" y1="185" x2="803.63" y2="448.58"/><line class="cls-5" x1="813.71" y1="185" x2="813.71" y2="448.58"/><line class="cls-5" x1="823.8" y1="184.39" x2="823.8" y2="447.96"/><line class="cls-5" x1="833.88" y1="185" x2="833.88" y2="448.58"/><line class="cls-5" x1="843.96" y1="185" x2="843.96" y2="448.58"/><line class="cls-5" x1="854.04" y1="185" x2="854.04" y2="448.58"/><line class="cls-5" x1="864.13" y1="185" x2="864.13" y2="448.58"/><line class="cls-5" x1="874.21" y1="185" x2="874.21" y2="448.58"/><line class="cls-5" x1="884.29" y1="184.39" x2="884.29" y2="447.96"/><line class="cls-5" x1="894.37" y1="185" x2="894.37" y2="448.58"/><line class="cls-5" x1="904.46" y1="185" x2="904.46" y2="448.58"/><line class="cls-5" x1="914.54" y1="185" x2="914.54" y2="448.58"/><line class="cls-5" x1="924.62" y1="185" x2="924.62" y2="448.58"/><line class="cls-5" x1="934.7" y1="185" x2="934.7" y2="448.58"/><circle class="cls-6" cx="596.34" cy="305.14" r="67.43"/><text class="cls-7" transform="translate(596.22 380.09) scale(1.13 1)"><tspan class="cls-8">W</tspan><tspan x="143.92" y="0">ork</tspan></text><path class="cls-4" d="M198.2.83V101.76c0,44.38-23.84,87-62.21,111.16-37.43,23.59-93.25,22.89-134.07-1.34V220c21.13,11.6,45.71,17.44,69.82,17.44,24.59,0,48.69-6.08,68.13-18.33,40.47-25.51,65.61-70.47,65.61-117.32V.83Z"/><path class="cls-9" d="M1488.68.83V51.42c0,22.24,12,43.59,31.19,55.72,18.75,11.82,46.73,11.47,67.2-.67v4.2a73.48,73.48,0,0,1-35,8.74c-12.33,0-24.41-3-34.15-9.19C1497.64,97.44,1485,74.9,1485,51.42V.83Z"/></g></g></svg>